<?xml version="1.0" encoding="UTF-8"?>
<svg width="93px" height="93px" viewBox="0 0 93 93" version="1.1" xmlns="http://www.w3.org/2000/svg" xmlns:xlink="http://www.w3.org/1999/xlink">
    <!-- Generator: Sketch 53.2 (72643) - https://sketchapp.com -->
    <title>g13417</title>
    <desc>Created with Sketch.</desc>
    <g id="Page-1" stroke="none" stroke-width="1" fill="none" fill-rule="evenodd">
        <g id="g14289" transform="translate(-1.000000, -588.999973)" fill-rule="nonzero">
            <g id="g13417" transform="translate(0.258690, 589.176250)">
                <path d="M46.91883,0.29957 C21.5137315,0.29957 0.91883,20.8944715 0.91883,46.29957 C0.91883,71.7046685 21.5137315,92.29957 46.91883,92.29957 C72.3239285,92.29957 92.91883,71.7046685 92.91883,46.29957 C92.91883,20.8944715 72.3239285,0.29957 46.91883,0.29957 L46.91883,0.29957 Z" id="path13381" fill="#3598DB"></path>
                <path d="M59.74891,27.08278 C40.82966,38.1549 31.64482,36.94896 21.20985,54.24293 L57.03016,91.11402 C73.24006,87.45989 86.2192,75.34756 90.98328,59.42848 L59.74891,27.08278 Z" id="path13383" fill-opacity="0.21461188" fill="#000000"></path>
                <path d="M28.29918,57.44263 L68.42631,57.44263 C80.67612,54.76526 77.03846,37.41938 65.09969,38.93838 C61.23904,14.54236 35.03596,21.82142 33.28906,33.32476 C11.79799,31.96276 15.21746,57.36139 28.29918,57.44263 Z" id="path13385" fill="#ECF0F3"></path>
                <path d="M52.48242,63.221555 L51.45898,66.137571 L51.37698,67.852414 L48.3887,64.803586 L48.3987,68.162961 L45.52565,67.512571 L46.9319,68.991086 L44.78151,70.002805 L45.95924,71.274289 L44.83229,71.481321 L46.53932,73.186399 L45.42214,74.200071 L60.36354,90.244992 C65.15703,88.773078 69.6776,86.527307 73.74635,83.596555 L58.40651,66.58093 L57.78542,66.364133 L56.19948,64.750852 L55.74831,64.670772 L55.09792,64.030147 L53.87721,64.639522 L52.48242,63.221555 Z" id="path13395" fill-opacity="0.21568627" fill="#000000"></path>
                <path d="M51.98553,63.00787 C51.6022233,63.0138589 51.2962044,63.3291859 51.3017,63.7125 L51.3017,65.83998 L49.61383,64.15211 C49.4976741,64.0311121 49.3251789,63.9823662 49.1628743,64.0246731 C49.0005696,64.0669801 48.8738194,64.1937283 48.83151,64.3560323 C48.7892006,64.5183363 48.8379439,64.6908323 48.95894,64.80699 L51.3017,67.14975 L51.3017,69.32155 L49.34428,68.19178 L48.48768,64.99242 C48.4368404,64.7903359 48.2573078,64.6470822 48.04898,64.64237 C47.9019481,64.6390715 47.7620879,64.7057972 47.6721424,64.8221547 C47.582197,64.9385122 47.5528573,65.0906712 47.59309,65.23213 L48.20999,67.53689 L46.44433,66.51747 C46.3442176,66.4577167 46.2306777,66.4241183 46.11417,66.41977 C45.793386,66.4079752 45.5062855,66.6174806 45.4196617,66.9265726 C45.3330379,67.2356645 45.4694466,67.5638594 45.74964,67.72049 L47.44203,68.69739 L45.05496,69.3369 C44.8920892,69.3769901 44.7636198,69.502003 44.7191035,69.6637201 C44.6745873,69.8254372 44.7209812,69.9985851 44.8403908,70.1163793 C44.9598005,70.2341734 45.1335642,70.2782048 45.29466,70.23149 L48.57632,69.35228 L50.53555,70.48386 L48.55642,71.62629 L45.35797,70.76879 C45.3132649,70.7561961 45.2669198,70.7503979 45.22049,70.75159 C44.9894486,70.7577603 44.7983157,70.9333119 44.7725682,71.1629971 C44.7468206,71.3926822 44.8943394,71.6061965 45.11828,71.66337 L47.42213,72.28117 L45.65647,73.30058 C45.4414068,73.4246744 45.3088838,73.6540772 45.3088211,73.9023746 C45.3087584,74.150672 45.4411656,74.3801417 45.6561661,74.5043447 C45.8711667,74.6285476 46.1360968,74.6286145 46.35116,74.50452 L48.04446,73.52672 L47.40495,75.91379 C47.3582599,76.0748771 47.4023008,76.2486198 47.5200885,76.3680144 C47.6378762,76.4874091 47.8110062,76.5338002 47.9727112,76.489297 C48.1344162,76.4447938 48.2594295,76.3163502 48.29954,76.1535 L49.17875,72.87183 L51.3017,71.64618 L51.3017,74.09115 L48.95894,76.433 C48.8379439,76.5491577 48.7892006,76.7216537 48.83151,76.8839577 C48.8738194,77.0462617 49.0005696,77.1730099 49.1628743,77.2153169 C49.3251789,77.2576238 49.4976741,77.2088779 49.61383,77.08788 L51.3017,75.40092 L51.3017,77.44065 C51.2981409,77.6911888 51.4297632,77.9242344 51.6461625,78.0505425 C51.8625617,78.1768505 52.1302083,78.1768505 52.3466075,78.0505425 C52.5630068,77.9242344 52.6946291,77.6911888 52.69107,77.44065 L52.69107,75.48595 L54.43773,77.23261 C54.5539036,77.353533 54.7263633,77.4022206 54.888622,77.3599026 C55.0508806,77.3175845 55.1775945,77.1908706 55.2199126,77.028612 C55.2622306,76.8663533 55.213543,76.6938936 55.09262,76.57772 L52.69107,74.17617 L52.69107,71.72849 L54.73442,72.90801 L55.61454,76.18968 C55.6546505,76.3525302 55.7796638,76.4809738 55.9413688,76.525477 C56.1030738,76.5699802 56.2762038,76.5235891 56.3939915,76.4041944 C56.5117792,76.2847998 56.5558201,76.1110571 56.50913,75.94997 L55.86872,73.5629 L57.63799,74.58412 C57.8532615,74.7145744 58.1222568,74.7183869 58.3411389,74.5940857 C58.5600211,74.4697845 58.6945497,74.2368144 58.6927944,73.985106 C58.6910391,73.7333977 58.5532744,73.5023265 58.33268,73.38109 L56.49013,72.31735 L58.7958,71.69955 C59.0220882,71.6414356 59.1696686,71.4238872 59.1400127,71.1921455 C59.1103569,70.9604039 58.9127503,70.7870289 58.67912,70.78777 C58.6375271,70.7879536 58.5961484,70.793739 58.5561,70.80497 L55.35584,71.66247 L53.3143,70.48386 L55.33685,69.3161 L58.61851,70.19531 C58.7796058,70.2420248 58.9533695,70.1979934 59.0727792,70.0801993 C59.1921888,69.9624051 59.2385827,69.7892572 59.1940665,69.6275401 C59.1495502,69.465823 59.0210808,69.3408101 58.85821,69.30072 L56.47114,68.66121 L58.24041,67.63999 C58.5127131,67.4876732 58.6500771,67.1725089 58.5762924,66.8693501 C58.5025077,66.5661914 58.2356737,66.3494034 57.92383,66.33926 C57.7910478,66.3350069 57.6598301,66.3689132 57.54573,66.43696 L55.70318,67.5007 L56.32098,65.19594 C56.361774,65.052073 56.3305987,64.8973614 56.2372706,64.7805208 C56.1439425,64.6636801 55.9999451,64.5990868 55.85062,64.60708 C55.6479987,64.6179735 55.4760593,64.7594865 55.4264,64.95623 L54.56889,68.15559 L52.69107,69.23922 L52.69107,67.06471 L55.09262,64.66226 C55.2295944,64.5291158 55.2707795,64.3255376 55.1963298,64.149621 C55.1218802,63.9737045 54.9470689,63.8615381 54.75613,63.86717 C54.6358107,63.8707536 54.5216129,63.9210379 54.43773,64.00737 L52.69107,65.75494 L52.69107,63.71249 C52.6937632,63.5246393 52.620265,63.3437057 52.4873352,63.2109473 C52.3544054,63.0781889 52.173377,63.0049243 51.98553,63.00786 L51.98553,63.00787 Z" id="path13397" fill="#ECF0F3"></path>
            </g>
        </g>
    </g>
</svg>