<?xml version="1.0" encoding="UTF-8"?>
<svg width="93px" height="93px" viewBox="0 0 93 93" version="1.1" xmlns="http://www.w3.org/2000/svg" xmlns:xlink="http://www.w3.org/1999/xlink">
    <!-- Generator: Sketch 53.2 (72643) - https://sketchapp.com -->
    <title>g13223</title>
    <desc>Created with Sketch.</desc>
    <g id="Page-1" stroke="none" stroke-width="1" fill="none" fill-rule="evenodd">
        <g id="g14289" transform="translate(-119.000000, -470.999973)" fill-rule="nonzero">
            <g id="g13223" transform="translate(117.331900, 470.681390)">
                <g id="g13225" transform="translate(0.114500, 0.590180)">
                    <g id="g13227" transform="translate(0.737590, 0.593790)">
                        <path d="M46.8658,0.04934 C21.4607015,0.04934 0.8658,20.6442415 0.8658,46.04934 C0.8658,71.4544385 21.4607015,92.04934 46.8658,92.04934 C72.2708985,92.04934 92.8658,71.4544385 92.8658,46.04934 C92.8658,20.6442415 72.2708985,0.04934 46.8658,0.04934 L46.8658,0.04934 Z" id="path13229" fill="#3598DB"></path>
                        <path d="M59.69588,26.83255 C40.77663,37.90467 31.59179,36.69873 21.15682,53.9927 L56.97713,90.86379 C73.18703,87.20966 86.16617,75.09733 90.93025,59.17825 L59.69588,26.83255 Z" id="path13231" fill-opacity="0.21461188" fill="#000000"></path>
                        <path d="M28.24615,57.1924 L68.37328,57.1924 C80.62309,54.51503 76.98543,37.16915 65.04666,38.68815 C61.18601,14.29213 34.98293,21.57119 33.23603,33.07453 C11.74496,31.71253 15.16443,57.11116 28.24615,57.1924 L28.24615,57.1924 Z" id="path13233" fill="#ECF0F3"></path>
                    </g>
                </g>
                <path d="M48.75,62.44812 L45.19727,76.66296 L59.60938,91.64929 C63.80705,90.51648 67.82292,88.79426 71.53711,86.53406 L48.75,62.44812 Z" id="path13237" fill-opacity="0.21568627" fill="#000000"></path>
                <g id="g13239" transform="translate(43.980053, 62.133016)">
                    <path d="M9.40145266,11.5985786 C9.40145266,14.7272438 7.35086479,15.7295209 4.82124393,15.7295209 C2.29169057,15.7295209 0.241035197,14.7272438 0.241035197,11.5985786 C0.241035197,8.46984589 2.71780516,7.2120215 4.82124393,0.223215737 C6.75425037,7.04152166 9.40145266,8.46984589 9.40145266,11.5985786 Z" id="path13241" fill="#75C1F4"></path>
                    <path d="M3.07183193,6.4759563 C1.73577741,8.3177055 0.660332494,13.5703964 2.58962654,13.8887167 C3.91535388,13.384777 2.20934306,12.1939106 3.07183193,6.4759563 Z" id="path13243" fill="#DAEFFC"></path>
                </g>
            </g>
        </g>
    </g>
</svg>