<?xml version="1.0" encoding="UTF-8"?>
<svg width="93px" height="93px" viewBox="0 0 93 93" version="1.1" xmlns="http://www.w3.org/2000/svg" xmlns:xlink="http://www.w3.org/1999/xlink">
    <!-- Generator: Sketch 53.2 (72643) - https://sketchapp.com -->
    <title>g10741</title>
    <desc>Created with Sketch.</desc>
    <g id="Page-1" stroke="none" stroke-width="1" fill="none" fill-rule="evenodd">
        <g id="g14289" transform="translate(-1.000000, -470.999973)" fill-rule="nonzero">
            <g id="g10741" transform="translate(0.311720, 471.865350)">
                <path d="M46.8658,0.04934 C21.4607015,0.04934 0.8658,20.6442415 0.8658,46.04934 C0.8658,71.4544385 21.4607015,92.04934 46.8658,92.04934 C72.2708985,92.04934 92.8658,71.4544385 92.8658,46.04934 C92.8658,20.6442415 72.2708985,0.04934 46.8658,0.04934 L46.8658,0.04934 Z" id="path10714" fill="#3598DB"></path>
                <path d="M59.69588,26.83255 C40.77663,37.90467 31.59179,36.69873 21.15682,53.9927 L56.97713,90.86379 C73.18703,87.20966 86.16617,75.09733 90.93025,59.17825 L59.69588,26.83255 Z" id="path10716" fill-opacity="0.21461188" fill="#000000"></path>
                <path d="M28.24615,57.1924 L68.37328,57.1924 C80.62309,54.51503 76.98543,37.16915 65.04666,38.68815 C61.18601,14.29213 34.98293,21.57119 33.23603,33.07453 C11.74496,31.71253 15.16443,57.11116 28.24615,57.1924 L28.24615,57.1924 Z" id="path10718" fill="#ECF0F3"></path>
            </g>
        </g>
    </g>
</svg>