<?xml version="1.0" encoding="UTF-8"?>
<svg width="93px" height="93px" viewBox="0 0 93 93" version="1.1" xmlns="http://www.w3.org/2000/svg" xmlns:xlink="http://www.w3.org/1999/xlink">
    <!-- Generator: Sketch 53.2 (72643) - https://sketchapp.com -->
    <title>g10458</title>
    <desc>Created with Sketch.</desc>
    <g id="Page-1" stroke="none" stroke-width="1" fill="none" fill-rule="evenodd">
        <g id="g14289" transform="translate(-1.000000, -235.999973)" fill-rule="nonzero">
            <g id="g10458" transform="translate(0.591580, 236.500410)">
                <path d="M46.58594,0.29187 C21.1808415,0.29187 0.58594,20.8867715 0.58594,46.29187 C0.585941105,71.6969677 21.1808423,92.291868 46.58594,92.291868 C71.9910377,92.291868 92.5859389,71.6969677 92.58594,46.29187 C92.58594,20.8867715 71.9910385,0.29187 46.58594,0.29187 L46.58594,0.29187 Z" id="rect13518" fill="#285679"></path>
                <path d="M55.94141,33.18249 L34.61914,56.87585 L65.5293,88.149289 C75.522679,83.6224382 83.5691111,75.6729857 88.2168,65.73523 L55.94141,33.18249 L55.94141,33.18249 Z" id="path13520" fill-opacity="0.21461188" fill="#000000"></path>
                <g id="g13526" transform="translate(30.432627, 30.222816)">
                    <path d="M32.19816,16.0690603 C32.1981605,24.9298772 25.0150503,32.1129893 16.1542334,32.1129911 C11.8991183,32.1129915 7.81828143,30.4226537 4.8094606,27.413833 C1.80063978,24.4050123 0.110301938,20.3241755 0.110302184,16.0690603 C0.110303974,7.20824327 7.29341636,0.0251329586 16.1542334,0.0251337259 C25.0150487,0.0251355163 32.1981582,7.20824508 32.19816,16.0690603 L32.19816,16.0690603 Z" id="path13528" fill="#CECDC9"></path>
                    <path d="M5.77810326,9.2774339 C5.17823759,7.849716 4.05638051,6.58089586 8.35114472,3.66354042 C8.35114472,3.66354042 13.9097875,3.55743877 13.0293985,4.59918934 C10.8944675,7.12543677 11.2775311,14.0816481 13.497223,13.0200759 C11.7060919,14.2698153 10.7918856,16.3964796 7.18158126,15.8270226 C7.18158126,15.8270226 9.52070817,22.376565 7.41549117,22.6104888 C5.3102788,22.8444126 2.10679625,19.9014927 1.56767389,19.1017706 C0.164357988,17.0200757 3.19395147,12.4887803 3.60194033,12.7743887 C3.60194033,12.7743887 8.94295666,12.7642 9.28679363,11.3826555 C9.63063059,10.0010648 5.77810326,9.2774339 5.77810326,9.2774339 L5.77810326,9.2774339 Z" id="path13530" fill="#AEB8C2" opacity="0.76954735"></path>
                    <path d="M19.2280598,9.79474313 C21.0191909,11.0444826 21.9333972,13.1711468 25.5437016,12.6016899 C26.8804712,12.200671 26.0240489,18.1878885 25.3097917,19.3851561 C23.5668903,22.3067259 27.7030809,24.2219279 31.1576089,15.8764379 C32.1178034,13.55679 29.5313314,9.26344756 29.1233425,9.54905598 C29.1233425,9.54905598 23.7823262,9.53886725 23.4384892,8.1573228 C19.3911535,6.32381587 19.0740573,8.64953072 19.2280598,9.79474313 L19.2280598,9.79474313 Z" id="path13532" fill="#AEB8C2" opacity="0.76954735"></path>
                    <path d="M19.1183273,27.3387507 C17.0661565,27.3688538 14.7428128,27.9074667 14.3713089,28.2360993 C14.3713089,28.2360993 13.209211,31.8052088 11.8386009,31.4200751 C11.8053949,31.4441575 11.7840588,31.4685178 11.7517652,31.492415 C13.1504683,31.8910256 14.6241791,32.1147607 16.1514408,32.1147607 C16.3009325,32.1147144 16.4515728,32.1041088 16.6000919,32.1004039 C16.6449686,31.9952748 16.7021088,31.8949622 16.7448181,31.7820063 C16.8576536,31.2921603 17.5521169,31.4694904 18.4236417,31.9412282 C19.9858878,31.7200866 21.468157,31.275812 22.8522625,30.6386464 C22.7031089,29.9716555 22.5604066,29.3160576 22.3746662,28.5256906 C22.1574195,27.6012493 20.7144602,27.3156408 19.1183273,27.3388896 L19.1183273,27.3387507 Z" id="path13534" fill="#AEB8C2" opacity="0.76954735"></path>
                    <path d="M14.5587026,21.5353933 C12.8158012,24.4569632 16.9519919,26.3721651 20.4065199,18.0266752 C17.7964286,16.4646051 16.2900398,18.2359145 14.5587026,21.5353933 Z" id="path13536" fill="#B6BEC8" opacity="0.76954735"></path>
                </g>
            </g>
        </g>
    </g>
</svg>