<?xml version="1.0" encoding="UTF-8"?>
<svg width="93px" height="93px" viewBox="0 0 93 93" version="1.1" xmlns="http://www.w3.org/2000/svg" xmlns:xlink="http://www.w3.org/1999/xlink">
    <!-- Generator: Sketch 53.2 (72643) - https://sketchapp.com -->
    <title>g13433</title>
    <desc>Created with Sketch.</desc>
    <g id="Page-1" stroke="none" stroke-width="1" fill="none" fill-rule="evenodd">
        <g id="g14289" transform="translate(-119.000000, -235.999973)" fill-rule="nonzero">
            <g id="g13433" transform="translate(118.422840, 235.957440)">
                <path d="M46.62695,0.83484 C21.2218515,0.83484 0.62695,21.4297415 0.62695,46.83484 C0.62695,72.2399385 21.2218515,92.83484 46.62695,92.83484 C72.0320485,92.83484 92.62695,72.2399385 92.62695,46.83484 C92.62695,21.4297415 72.0320485,0.83484 46.62695,0.83484 Z" id="path13435" fill="#285679"></path>
                <path d="M72.20703,30.18249 C65.3496,30.4883 55.22408,47.84548 50.40234,53.75866 L76.51367,81.66101 C85.9787702,73.547994 91.7457243,61.9407848 92.49414,49.49695 L73.55664,30.36609 C73.12389,30.22037 72.67273,30.16172 72.20703,30.18249 Z" id="path13437" fill-opacity="0.21568627" fill="#000000"></path>
                <g id="g13439" transform="translate(46.040557, 25.621786)">
                    <circle id="circle13441" fill="#CECDC9" cx="16.1542334" cy="16.0690603" r="16.0439298"></circle>
                    <path d="M5.77810326,9.2774339 C5.17823759,7.849716 4.05638051,6.58089586 8.35114472,3.66354042 C8.35114472,3.66354042 13.9097875,3.55743877 13.0293985,4.59918934 C10.8944675,7.12543677 11.2775311,14.0816481 13.497223,13.0200759 C11.7060919,14.2698153 10.7918856,16.3964796 7.18158126,15.8270226 C7.18158126,15.8270226 9.52070817,22.376565 7.41549117,22.6104888 C5.3102788,22.8444126 2.10679625,19.9014927 1.56767389,19.1017706 C0.164357988,17.0200757 3.19395147,12.4887803 3.60194033,12.7743887 C3.60194033,12.7743887 8.94295666,12.7642 9.28679363,11.3826555 C9.63063059,10.0010648 5.77810326,9.2774339 5.77810326,9.2774339 L5.77810326,9.2774339 Z" id="path13443" fill="#AEB8C2" opacity="0.76954735"></path>
                    <path d="M19.2280598,9.79474313 C21.0191909,11.0444826 21.9333972,13.1711468 25.5437016,12.6016899 C26.8804712,12.200671 26.0240489,18.1878885 25.3097917,19.3851561 C23.5668903,22.3067259 27.7030809,24.2219279 31.1576089,15.8764379 C32.1178034,13.55679 29.5313314,9.26344756 29.1233425,9.54905598 C29.1233425,9.54905598 23.7823262,9.53886725 23.4384892,8.1573228 C19.3911535,6.32381587 19.0740573,8.64953072 19.2280598,9.79474313 L19.2280598,9.79474313 Z" id="path13445" fill="#AEB8C2" opacity="0.76954735"></path>
                    <path d="M19.1183273,27.3387507 C17.0661565,27.3688538 14.7428128,27.9074667 14.3713089,28.2360993 C14.3713089,28.2360993 13.209211,31.8052088 11.8386009,31.4200751 C11.8053949,31.4441575 11.7840588,31.4685178 11.7517652,31.492415 C13.1504683,31.8910256 14.6241791,32.1147607 16.1514408,32.1147607 C16.3009325,32.1147144 16.4515728,32.1041088 16.6000919,32.1004039 C16.6449686,31.9952748 16.7021088,31.8949622 16.7448181,31.7820063 C16.8576536,31.2921603 17.5521169,31.4694904 18.4236417,31.9412282 C19.9858878,31.7200866 21.468157,31.275812 22.8522625,30.6386464 C22.7031089,29.9716555 22.5604066,29.3160576 22.3746662,28.5256906 C22.1574195,27.6012493 20.7144602,27.3156408 19.1183273,27.3388896 L19.1183273,27.3387507 Z" id="path13447" fill="#AEB8C2" opacity="0.76954735"></path>
                    <path d="M14.5587026,21.5353933 C12.8158012,24.4569632 16.9519919,26.3721651 20.4065199,18.0266752 C17.7964286,16.4646051 16.2900398,18.2359145 14.5587026,21.5353933 Z" id="path13449" fill="#B6BEC8" opacity="0.76954735"></path>
                </g>
                <path d="M56.7168,31.09656 L18.55469,58.20202 L50.75586,92.61413 C51.40722,92.54858 52.05711,92.469138 52.70508,92.37585 C53.53254,92.273283 54.35706,92.148237 55.17773,92.00085 C55.8286,91.869061 56.47654,91.723194 57.12109,91.56335 C57.98072,91.369173 58.83459,91.150333 59.68164,90.9071 C60.27275,90.724308 60.86011,90.529608 61.44336,90.32312 C62.3199,90.032251 63.18748,89.71505 64.04492,89.37195 C64.58261,89.143844 65.11591,88.905517 65.64453,88.6571 C66.52538,88.263929 67.39365,87.843147 68.24805,87.39538 C68.70956,87.140884 69.16665,86.878475 69.61914,86.60827 C70.50509,86.104727 71.37406,85.571883 72.22461,85.01062 C72.62159,84.73557 73.01422,84.454285 73.40234,84.16687 C74.27078,83.552542 75.11764,82.908275 75.94141,82.23523 C76.27229,81.952771 76.59915,81.665632 76.92188,81.3739 C77.76161,80.645144 78.57465,79.886182 79.35938,79.09851 C79.63062,78.814836 79.89822,78.527703 80.16211,78.23718 C80.94706,77.407459 81.70084,76.548791 82.42188,75.66296 C82.65948,75.357975 82.89322,75.050008 83.12305,74.73913 C83.82797,73.827141 84.49836,72.888979 85.13281,71.92663 C85.32322,71.623485 85.51008,71.318127 85.69336,71.01062 C86.32211,70.005142 86.91174,68.975726 87.46094,67.92468 C87.63877,67.568221 87.81196,67.209468 87.98047,66.84851 C88.42624,65.949606 88.84248,65.036357 89.22852,64.11023 L56.7168,31.09656 Z" id="path13451" fill-opacity="0.21461188" fill="#000000"></path>
                <path d="M25.35264,61.422779 L65.47977,61.422779 C77.72962,58.745415 74.09197,41.399531 62.15319,42.918531 C58.2925,18.52251 32.08947,25.80157 30.34257,37.304915 C8.85149,35.94291 12.27092,61.341547 25.35264,61.422779 Z" id="path13453" fill="#ECF0F3"></path>
            </g>
        </g>
    </g>
</svg>