<?xml version="1.0" encoding="UTF-8"?>
<svg width="93px" height="93px" viewBox="0 0 93 93" version="1.1" xmlns="http://www.w3.org/2000/svg" xmlns:xlink="http://www.w3.org/1999/xlink">
    <!-- Generator: Sketch 53.2 (72643) - https://sketchapp.com -->
    <title>g13207</title>
    <desc>Created with Sketch.</desc>
    <g id="Page-1" stroke="none" stroke-width="1" fill="none" fill-rule="evenodd">
        <g id="g14289" transform="translate(-354.000000, -353.999973)" fill-rule="nonzero">
            <g id="g13207" transform="translate(354.613412, 353.447450)">
                <path d="M46.1809,0.90606 C20.7758015,0.90606 0.1809,21.5009615 0.1809,46.90606 C0.1809,72.3111585 20.7758015,92.90606 46.1809,92.90606 C71.5859985,92.90606 92.1809,72.3111585 92.1809,46.90606 C92.1809,21.5009615 71.5859985,0.90606 46.1809,0.90606 Z" id="path13133" fill="#285679"></path>
                <path d="M71.76148,30.25429 C64.77597,30.56581 54.38588,48.6012 49.67945,54.17812 L55.47633,60.04336 L55.58961,59.97106 L58.87281,63.47887 L60.31226,64.9359 L60.29466,64.9984 L76.00364,81.78551 C85.5054907,73.6714098 91.2977353,62.0410915 92.04856,49.56872 L73.11106,30.43786 C72.67831,30.29214 72.22715,30.23349 71.76145,30.25426 L71.76148,30.25429 Z" id="path13135" fill-opacity="0.21568627" fill="#000000"></path>
                <g id="g13137" transform="translate(45.594507, 25.693006)">
                    <circle id="circle13139" fill="#CECDC9" cx="16.1542334" cy="16.0690603" r="16.0439298"></circle>
                    <path d="M5.77810326,9.2774339 C5.17823759,7.849716 4.05638051,6.58089586 8.35114472,3.66354042 C8.35114472,3.66354042 13.9097875,3.55743877 13.0293985,4.59918934 C10.8944675,7.12543677 11.2775311,14.0816481 13.497223,13.0200759 C11.7060919,14.2698153 10.7918856,16.3964796 7.18158126,15.8270226 C7.18158126,15.8270226 9.52070817,22.376565 7.41549117,22.6104888 C5.3102788,22.8444126 2.10679625,19.9014927 1.56767389,19.1017706 C0.164357988,17.0200757 3.19395147,12.4887803 3.60194033,12.7743887 C3.60194033,12.7743887 8.94295666,12.7642 9.28679363,11.3826555 C9.63063059,10.0010648 5.77810326,9.2774339 5.77810326,9.2774339 L5.77810326,9.2774339 Z" id="path13141" fill="#AEB8C2" opacity="0.76954735"></path>
                    <path d="M19.2280598,9.79474313 C21.0191909,11.0444826 21.9333972,13.1711468 25.5437016,12.6016899 C26.8804712,12.200671 26.0240489,18.1878885 25.3097917,19.3851561 C23.5668903,22.3067259 27.7030809,24.2219279 31.1576089,15.8764379 C32.1178034,13.55679 29.5313314,9.26344756 29.1233425,9.54905598 C29.1233425,9.54905598 23.7823262,9.53886725 23.4384892,8.1573228 C19.3911535,6.32381587 19.0740573,8.64953072 19.2280598,9.79474313 L19.2280598,9.79474313 Z" id="path13143" fill="#AEB8C2" opacity="0.76954735"></path>
                    <path d="M19.1183273,27.3387507 C17.0661565,27.3688538 14.7428128,27.9074667 14.3713089,28.2360993 C14.3713089,28.2360993 13.209211,31.8052088 11.8386009,31.4200751 C11.8053949,31.4441575 11.7840588,31.4685178 11.7517652,31.492415 C13.1504683,31.8910256 14.6241791,32.1147607 16.1514408,32.1147607 C16.3009325,32.1147144 16.4515728,32.1041088 16.6000919,32.1004039 C16.6449686,31.9952748 16.7021088,31.8949622 16.7448181,31.7820063 C16.8576536,31.2921603 17.5521169,31.4694904 18.4236417,31.9412282 C19.9858878,31.7200866 21.468157,31.275812 22.8522625,30.6386464 C22.7031089,29.9716555 22.5604066,29.3160576 22.3746662,28.5256906 C22.1574195,27.6012493 20.7144602,27.3156408 19.1183273,27.3388896 L19.1183273,27.3387507 Z" id="path13145" fill="#AEB8C2" opacity="0.76954735"></path>
                    <path d="M14.5587026,21.5353933 C12.8158012,24.4569632 16.9519919,26.3721651 20.4065199,18.0266752 C17.7964286,16.4646051 16.2900398,18.2359145 14.5587026,21.5353933 Z" id="path13147" fill="#B6BEC8" opacity="0.76954735"></path>
                </g>
                <path d="M56.27075,31.16778 L17.88793,58.42949 L24.32543,64.93926 L50.13207,92.70684 C50.84298,92.63674 51.55216,92.55016 52.25903,92.44707 C53.08649,92.3445 53.91101,92.21946 54.73168,92.07207 C55.38255,91.94028 56.03049,91.79441 56.67504,91.63457 C57.53467,91.44039 58.38854,91.22155 59.23559,90.97832 C59.8267,90.79553 60.41406,90.60083 60.99731,90.39434 C61.87385,90.10347 62.74143,89.78627 63.59887,89.44317 C64.13656,89.21506 64.66986,88.97674 65.19848,88.72832 C66.07933,88.33515 66.9476,87.91437 67.802,87.4666 C68.26351,87.2121 68.7206,86.94969 69.17309,86.67949 C70.05904,86.17595 70.92801,85.6431 71.77856,85.08184 C72.17554,84.80679 72.56817,84.5255 72.95629,84.23809 C73.82473,83.62376 74.67159,82.97949 75.49536,82.30645 C75.82624,82.02399 76.1531,81.73685 76.47583,81.44512 C77.31556,80.71636 78.1286,79.9574 78.91333,79.16973 C79.18457,78.88606 79.45217,78.59892 79.71606,78.3084 C80.50101,77.47868 81.25479,76.62001 81.97583,75.73418 C82.21343,75.42919 82.44717,75.12123 82.677,74.81035 C83.38192,73.89836 84.05231,72.9602 84.68676,71.99785 C84.87717,71.6947 85.06403,71.38935 85.24731,71.08184 C85.87606,70.07636 86.46569,69.04695 87.01489,67.9959 C87.19272,67.63944 87.36591,67.28069 87.53442,66.91973 C87.98019,66.02083 88.39643,65.10758 88.78247,64.18145 L56.27075,31.16778 Z" id="path13149" fill-opacity="0.21461188" fill="#000000"></path>
                <path d="M24.90659,61.494 L65.03372,61.494 C77.28357,58.81663 73.64592,41.47075 61.70714,42.98975 C57.84645,18.59373 31.64342,25.87279 29.89652,37.37613 C8.40544,36.01413 11.82487,61.41277 24.90659,61.494 Z" id="path13151" fill="#ECF0F3"></path>
                <path d="M54.76562,64.192258 L53.74219,67.108274 L53.66019,68.823118 L50.67191,65.774289 L50.68191,69.133664 L47.80886,68.483274 L49.21511,69.961789 L47.06472,70.973508 L48.24246,72.244992 L47.1155,72.452024 L48.82254,74.157102 L47.70535,75.170774 L61.46902,90.239133 C66.33748,88.534895 70.88463,86.023961 74.92019,82.811399 L60.68972,67.551633 L60.06863,67.334836 L58.48269,65.721555 L58.03152,65.639525 L57.38113,64.9989 L56.16043,65.608275 L54.76562,64.192258 Z" id="path13155" fill-opacity="0.21568627" fill="#000000"></path>
                <path d="M54.2695,63.9777 C53.8861933,63.9836889 53.5801744,64.2990159 53.58567,64.68233 L53.58567,66.80981 L51.8978,65.12194 C51.7816441,65.0009421 51.6091489,64.9521962 51.4468443,64.9945031 C51.2845396,65.0368101 51.1577894,65.1635583 51.11548,65.3258623 C51.0731706,65.4881663 51.1219139,65.6606623 51.24291,65.77682 L53.58567,68.11958 L53.58567,70.29138 L51.62825,69.16161 L50.77165,65.96225 C50.7208104,65.7601659 50.5412778,65.6169122 50.33295,65.6122 C50.1859181,65.6089015 50.0460579,65.6756272 49.9561124,65.7919847 C49.866167,65.9083422 49.8368273,66.0605012 49.87706,66.20196 L50.49396,68.50672 L48.7283,67.4873 C48.6281876,67.4275467 48.5146477,67.3939483 48.39814,67.3896 C48.077356,67.3778052 47.7902555,67.5873106 47.7036317,67.8964026 C47.6170079,68.2054945 47.7534166,68.5336894 48.03361,68.69032 L49.726,69.66722 L47.33893,70.30673 C47.1760592,70.3468201 47.0475898,70.471833 47.0030735,70.6335501 C46.9585573,70.7952672 47.0049512,70.9684151 47.1243608,71.0862093 C47.2437705,71.2040034 47.4175342,71.2480348 47.57863,71.20132 L50.86029,70.32211 L52.81952,71.45369 L50.84039,72.59612 L47.64194,71.73862 C47.5972349,71.7260261 47.5508898,71.7202279 47.50446,71.72142 C47.2734186,71.7275903 47.0822857,71.9031419 47.0565382,72.1328271 C47.0307906,72.3625122 47.1783094,72.5760265 47.40225,72.6332 L49.7061,73.251 L47.94044,74.27041 C47.7253768,74.3945044 47.5928538,74.6239072 47.5927911,74.8722046 C47.5927284,75.120502 47.7251356,75.3499717 47.9401361,75.4741747 C48.1551367,75.5983776 48.4200668,75.5984445 48.63513,75.47435 L50.32843,74.49655 L49.68892,76.88362 C49.6422299,77.0447071 49.6862708,77.2184498 49.8040585,77.3378444 C49.9218462,77.4572391 50.0949762,77.5036302 50.2566812,77.459127 C50.4183862,77.4146238 50.5433995,77.2861802 50.58351,77.12333 L51.46272,73.84166 L53.58567,72.61601 L53.58567,75.06098 L51.24291,77.40283 C51.1219139,77.5189877 51.0731706,77.6914837 51.11548,77.8537877 C51.1577894,78.0160917 51.2845396,78.1428399 51.4468443,78.1851469 C51.6091489,78.2274538 51.7816441,78.1787079 51.8978,78.05771 L53.58567,76.37075 L53.58567,78.41048 C53.5821109,78.6610188 53.7137332,78.8940644 53.9301325,79.0203725 C54.1465317,79.1466805 54.4141783,79.1466805 54.6305775,79.0203725 C54.8469768,78.8940644 54.9785991,78.6610188 54.97504,78.41048 L54.97504,76.45578 L56.7217,78.20244 C56.8378736,78.323363 57.0103333,78.3720506 57.172592,78.3297326 C57.3348506,78.2874145 57.4615645,78.1607006 57.5038826,77.998442 C57.5462006,77.8361833 57.497513,77.6637236 57.37659,77.54755 L54.97504,75.146 L54.97504,72.69832 L57.01839,73.87784 L57.89851,77.15951 C57.9386205,77.3223602 58.0636338,77.4508038 58.2253388,77.495307 C58.3870438,77.5398102 58.5601738,77.4934191 58.6779615,77.3740244 C58.7957492,77.2546298 58.8397901,77.0808871 58.7931,76.9198 L58.15269,74.53273 L59.92196,75.55395 C60.1372315,75.6844044 60.4062268,75.6882169 60.6251089,75.5639157 C60.8439911,75.4396145 60.9785197,75.2066444 60.9767644,74.954936 C60.9750091,74.7032277 60.8372444,74.4721565 60.61665,74.35092 L58.7741,73.28718 L61.07977,72.66938 C61.3060582,72.6112656 61.4536386,72.3937172 61.4239827,72.1619755 C61.3943269,71.9302339 61.1967203,71.7568589 60.96309,71.7576 C60.9214971,71.7577836 60.8801184,71.763569 60.84007,71.7748 L57.63981,72.6323 L55.59827,71.45369 L57.62082,70.28593 L60.90248,71.16514 C61.0635758,71.2118548 61.2373395,71.1678234 61.3567492,71.0500293 C61.4761588,70.9322351 61.5225527,70.7590872 61.4780365,70.5973701 C61.4335202,70.435653 61.3050508,70.3106401 61.14218,70.27055 L58.75511,69.63104 L60.52438,68.60982 C60.7966831,68.4575032 60.9340471,68.1423389 60.8602624,67.8391801 C60.7864777,67.5360214 60.5196437,67.3192334 60.2078,67.30909 C60.0750178,67.3048369 59.9438001,67.3387432 59.8297,67.40679 L57.98715,68.47053 L58.60495,66.16577 C58.645744,66.021903 58.6145687,65.8671914 58.5212406,65.7503508 C58.4279125,65.6335101 58.2839151,65.5689168 58.13459,65.57691 C57.9319687,65.5878035 57.7600293,65.7293165 57.71037,65.92606 L56.85286,69.12542 L54.97504,70.20905 L54.97504,68.03454 L57.37659,65.63209 C57.5135644,65.4989458 57.5547495,65.2953676 57.4802998,65.119451 C57.4058502,64.9435345 57.2310389,64.8313681 57.0401,64.837 C56.9197807,64.8405836 56.8055829,64.8908679 56.7217,64.9772 L54.97504,66.72477 L54.97504,64.68232 C54.9777332,64.4944693 54.904235,64.3135357 54.7713052,64.1807773 C54.6383754,64.0480189 54.457347,63.9747543 54.2695,63.97769 L54.2695,63.9777 Z" id="path13157" fill="#ECF0F3"></path>
                <path d="M33.74023,71.006711 L32.95312,73.244992 L32.89062,74.563352 L30.5957,72.221555 L30.6037,74.801633 L28.39666,74.301633 L29.47674,75.436399 L27.8244,76.215696 L28.73065,77.192258 L27.86541,77.350461 L29.17401,78.661008 L28.31659,79.438352 L40.4201,92.500852 C42.33031,92.75618 44.25467,92.891212 46.18182,92.905149 C49.30003,92.888419 52.40847,92.554675 55.45916,91.909055 L38.28924,73.586789 L37.81268,73.420774 L36.59393,72.180539 L36.24823,72.118039 L35.74823,71.625852 L34.81073,72.094602 L33.74023,71.006711 Z" id="path13161" fill-opacity="0.21568627" fill="#000000"></path>
                <path d="M33.35796,70.84133 C33.0635371,70.8457309 32.8283386,71.0878126 32.83243,71.38224 L32.83243,73.01584 L31.53713,71.71963 C31.3980012,71.5807497 31.1726303,71.5809512 31.03375,71.72008 C30.8948697,71.8592088 30.8950712,72.0845797 31.0342,72.22346 L32.83243,74.02168 L32.83243,75.68965 L31.32998,74.8222 L30.67148,72.36457 C30.6320635,72.2099538 30.4945091,72.1005038 30.33499,72.09683 C30.2222354,72.0943796 30.1149996,72.1455465 30.0459696,72.2347343 C29.9769396,72.3239221 29.9542957,72.4405619 29.98494,72.5491 L30.45982,74.31928 L29.10211,73.53595 C29.0255815,73.4902266 28.9388163,73.4644071 28.84974,73.46085 C28.6028566,73.4510152 28.3815165,73.6119704 28.3147786,73.8498657 C28.2480407,74.0877611 28.3533654,74.340357 28.56934,74.46037 L29.86916,75.21023 L28.03565,75.7023 C27.9086687,75.7313686 27.8077344,75.8275235 27.772545,75.9529466 C27.7373556,76.0783697 27.7735407,76.2129955 27.8668686,76.3038754 C27.9601964,76.3947553 28.0957364,76.42735 28.22018,76.38884 L30.74023,75.71406 L32.24538,76.58241 L30.72576,77.45982 L28.26812,76.80131 C28.2340169,76.7915708 28.1986491,76.7869868 28.16319,76.78771 C27.9845661,76.7909253 27.8360396,76.926135 27.8161084,77.1036725 C27.7961771,77.2812101 27.9110256,77.4459875 28.08449,77.48873 L29.85377,77.96271 L28.49787,78.74604 C28.3267009,78.8382435 28.2192351,79.0162553 28.2173729,79.2106695 C28.2155108,79.4050838 28.3195471,79.5851214 28.4889187,79.6805867 C28.6582903,79.776052 28.8661828,79.7718312 29.03154,79.66957 L30.33137,78.9188 L29.8402,80.7523 C29.7892589,80.9421284 29.9018415,81.1373124 30.0916663,81.1882664 C30.2814912,81.2392205 30.4766829,81.1266514 30.52765,80.93683 L31.20243,78.41588 L32.83242,77.47516 L32.83242,79.35298 L31.03419,81.15121 C30.9411026,81.240379 30.9035418,81.372932 30.9360125,81.4976798 C30.9684833,81.6224276 31.0659037,81.7198461 31.1906522,81.7523144 C31.3154006,81.7847827 31.4479528,81.7472191 31.53712,81.65413 L32.83242,80.35883 L32.83242,81.92459 C32.8329955,82.2189232 33.0717613,82.4572226 33.366095,82.4572226 C33.6604287,82.4572226 33.8991945,82.2189232 33.89977,81.92459 L33.89977,80.42396 L35.2412,81.76539 C35.3800803,81.9045188 35.6054512,81.9047203 35.74458,81.76584 C35.8837088,81.6269597 35.8839103,81.4015888 35.74503,81.26246 L33.89977,79.41811 L33.89977,77.53757 L35.47005,78.44392 L36.14484,80.96397 C36.1960998,81.1531372 36.3906953,81.2652213 36.5800456,81.2146418 C36.7693958,81.1640622 36.8821786,80.9698708 36.83228,80.78034 L36.34112,78.94685 L37.69883,79.73108 C37.8641854,79.833306 38.0720542,79.8375061 38.2414042,79.7420432 C38.4107541,79.6465802 38.5147798,79.4665643 38.5129296,79.27217 C38.5110795,79.0777757 38.4036462,78.8997723 38.23251,78.80755 L36.81781,77.99075 L38.58799,77.51587 C38.7615627,77.4710702 38.8746769,77.30411 38.851921,77.1262992 C38.8291651,76.9484884 38.6776507,76.8153949 38.49839,76.81575 C38.4665561,76.816052 38.4349067,76.8206261 38.40429,76.82935 L35.94757,77.48786 L34.3791,76.58241 L35.93219,75.68602 L38.45223,76.3608 C38.5770542,76.400343 38.7135104,76.368111 38.8074483,76.2768949 C38.9013863,76.1856787 38.9376153,76.0502289 38.9017585,75.9242963 C38.8659017,75.7983637 38.7637574,75.7023129 38.63586,75.67426 L36.80235,75.18309 L38.16097,74.39886 C38.3705975,74.282214 38.476602,74.0400056 38.42006,73.8068684 C38.3635181,73.5737312 38.1583336,73.4069944 37.91856,73.39934 C37.8165837,73.3960968 37.7158155,73.4221599 37.6282,73.47444 L36.2135,74.29124 L36.68748,72.52105 C36.7187985,72.4106154 36.694898,72.2918547 36.6232982,72.2021323 C36.5516985,72.1124099 36.4412008,72.062755 36.32657,72.06879 C36.1708757,72.0772841 36.0388637,72.1861888 36.00093,72.33743 L35.34243,74.79416 L33.89969,75.62724 L33.89969,73.95656 L35.74495,72.1122 C35.8501482,72.0099074 35.8817385,71.8535152 35.8244931,71.71841 C35.7672478,71.5833048 35.6329159,71.4972155 35.48625,71.50164 C35.3936401,71.5042278 35.3056942,71.5428461 35.24112,71.60928 L33.89969,72.95071 L33.89969,71.38224 C33.9016956,71.2380178 33.8452255,71.0991277 33.7431495,70.9972231 C33.6410734,70.8953185 33.5020886,70.839082 33.35787,70.84133 L33.35796,70.84133 Z" id="path13163" fill="#ECF0F3"></path>
            </g>
        </g>
    </g>
</svg>