<?xml version="1.0" encoding="UTF-8"?>
<svg width="93px" height="93px" viewBox="0 0 93 93" version="1.1" xmlns="http://www.w3.org/2000/svg" xmlns:xlink="http://www.w3.org/1999/xlink">
    <!-- Generator: Sketch 53.2 (72643) - https://sketchapp.com -->
    <title>g12582</title>
    <desc>Created with Sketch.</desc>
    <g id="Page-1" stroke="none" stroke-width="1" fill="none" fill-rule="evenodd">
        <g id="g14289" transform="translate(-354.000000, -235.999973)" fill-rule="nonzero">
            <g id="g12582" transform="translate(354.670052, 236.235200)">
                <path d="M46.12426,0.55667 C20.7191615,0.55667 0.12426,21.1515715 0.12426,46.55667 C0.12426,71.9617685 20.7191615,92.55667 46.12426,92.55667 C71.5293585,92.55667 92.12426,71.9617685 92.12426,46.55667 C92.12426,21.1515715 71.5293585,0.55667 46.12426,0.55667 L46.12426,0.55667 Z" id="path12478" fill="#285679"></path>
                <path d="M71.70508,29.90515 C64.85921,30.21044 54.75727,47.5083 49.92578,53.45007 L76.04102,81.35827 C85.4890808,73.2461024 91.2445113,61.6499698 91.99219,49.2196 L73.05469,30.08874 C72.62194,29.94302 72.17078,29.88438 71.70508,29.90515 L71.70508,29.90515 Z" id="path12480" fill-opacity="0.21568627" fill="#000000"></path>
                <g id="g12482" transform="translate(45.537867, 25.343616)">
                    <circle id="circle12484" fill="#CECDC9" cx="16.1542334" cy="16.0690603" r="16.0439298"></circle>
                    <path d="M5.77810326,9.2774339 C5.17823759,7.849716 4.05638051,6.58089586 8.35114472,3.66354042 C8.35114472,3.66354042 13.9097875,3.55743877 13.0293985,4.59918934 C10.8944675,7.12543677 11.2775311,14.0816481 13.497223,13.0200759 C11.7060919,14.2698153 10.7918856,16.3964796 7.18158126,15.8270226 C7.18158126,15.8270226 9.52070817,22.376565 7.41549117,22.6104888 C5.3102788,22.8444126 2.10679625,19.9014927 1.56767389,19.1017706 C0.164357988,17.0200757 3.19395147,12.4887803 3.60194033,12.7743887 C3.60194033,12.7743887 8.94295666,12.7642 9.28679363,11.3826555 C9.63063059,10.0010648 5.77810326,9.2774339 5.77810326,9.2774339 L5.77810326,9.2774339 Z" id="path12486" fill="#AEB8C2" opacity="0.76954735"></path>
                    <path d="M19.2280598,9.79474313 C21.0191909,11.0444826 21.9333972,13.1711468 25.5437016,12.6016899 C26.8804712,12.200671 26.0240489,18.1878885 25.3097917,19.3851561 C23.5668903,22.3067259 27.7030809,24.2219279 31.1576089,15.8764379 C32.1178034,13.55679 29.5313314,9.26344756 29.1233425,9.54905598 C29.1233425,9.54905598 23.7823262,9.53886725 23.4384892,8.1573228 C19.3911535,6.32381587 19.0740573,8.64953072 19.2280598,9.79474313 L19.2280598,9.79474313 Z" id="path12488" fill="#AEB8C2" opacity="0.76954735"></path>
                    <path d="M19.1183273,27.3387507 C17.0661565,27.3688538 14.7428128,27.9074667 14.3713089,28.2360993 C14.3713089,28.2360993 13.209211,31.8052088 11.8386009,31.4200751 C11.8053949,31.4441575 11.7840588,31.4685178 11.7517652,31.492415 C13.1504683,31.8910256 14.6241791,32.1147607 16.1514408,32.1147607 C16.3009325,32.1147144 16.4515728,32.1041088 16.6000919,32.1004039 C16.6449686,31.9952748 16.7021088,31.8949622 16.7448181,31.7820063 C16.8576536,31.2921603 17.5521169,31.4694904 18.4236417,31.9412282 C19.9858878,31.7200866 21.468157,31.275812 22.8522625,30.6386464 C22.7031089,29.9716555 22.5604066,29.3160576 22.3746662,28.5256906 C22.1574195,27.6012493 20.7144602,27.3156408 19.1183273,27.3388896 L19.1183273,27.3387507 Z" id="path12490" fill="#AEB8C2" opacity="0.76954735"></path>
                    <path d="M14.5587026,21.5353933 C12.8158012,24.4569632 16.9519919,26.3721651 20.4065199,18.0266752 C17.7964286,16.4646051 16.2900398,18.2359145 14.5587026,21.5353933 Z" id="path12492" fill="#B6BEC8" opacity="0.76954735"></path>
                </g>
                <path d="M56.21484,30.81921 L17.96875,57.98523 L22.04688,62.34265 L24.26953,64.5907 L24.24223,64.6903 L50.12895,92.35241 C50.82217,92.28321 51.5138,92.19905 52.20316,92.09851 C53.03062,91.99594 53.85515,91.8709 54.67582,91.72351 C55.32669,91.59172 55.97463,91.44585 56.61918,91.28601 C57.47881,91.09183 58.33268,90.87299 59.17973,90.62976 C59.77084,90.44697 60.3582,90.25226 60.94145,90.04577 C61.81799,89.7549 62.68557,89.4377 63.54301,89.0946 C64.0807,88.86649 64.614,88.62818 65.14262,88.37976 C66.02347,87.98659 66.89173,87.56581 67.74613,87.11804 C68.20764,86.86354 68.66474,86.60113 69.11723,86.33093 C70.00318,85.82739 70.87215,85.29453 71.7227,84.73327 C72.11968,84.45822 72.51231,84.17694 72.90043,83.88952 C73.76887,83.27519 74.61572,82.63092 75.43949,81.95788 C75.77037,81.67542 76.09723,81.38829 76.41996,81.09656 C77.25969,80.3678 78.07273,79.60883 78.85746,78.82116 C79.1287,78.53749 79.39631,78.25036 79.6602,77.95984 C80.44515,77.13012 81.19892,76.27145 81.91996,75.38562 C82.15756,75.08064 82.3913,74.77267 82.62113,74.46179 C83.32605,73.5498 83.99645,72.61164 84.6309,71.64929 C84.82131,71.34614 85.00817,71.04078 85.19145,70.73327 C85.8202,69.72779 86.40982,68.69839 86.95902,67.64734 C87.13685,67.29088 87.31005,66.93212 87.47856,66.57116 C87.92433,65.67226 88.34056,64.75901 88.7266,63.83288 L56.21488,30.81921 L56.21484,30.81921 Z" id="path12494" fill-opacity="0.21461188" fill="#000000"></path>
                <path d="M24.84995,61.14461 L64.97708,61.14461 C77.22693,58.46725 73.58928,41.12136 61.6505,42.64036 C57.78981,18.24434 31.58678,25.5234 29.83988,37.02674 C8.3488,35.66474 11.76823,61.06338 24.84995,61.14461 Z" id="path12496" fill="#ECF0F3"></path>
                <path d="M32.88477,67.49499 L29.58398,79.62195 L41.95703,92.34851 C43.34248,92.48119 44.73323,92.55092 46.125,92.55749 C49.60396,92.53799 53.06948,92.12389 56.45508,91.32312 L32.88477,67.49499 Z" id="path8657" fill-opacity="0.21568627" fill="#000000"></path>
                <g id="g8659" transform="translate(28.792282, 67.200895)">
                    <path d="M8.13838299,10.0403287 C8.13838299,12.7486629 6.36328822,13.6162857 4.17351775,13.6162857 C1.98380572,13.6162857 0.208652516,12.7486629 0.208652516,10.0403287 C0.208652516,7.33193605 2.35267251,6.2430983 4.17351775,0.193227071 C5.84682796,6.09550483 8.13838299,7.33193605 8.13838299,10.0403287 Z" id="path8661" fill="#75C1F4"></path>
                    <path d="M2.65913638,5.60592224 C1.50257858,7.20023547 0.571617912,11.747236 2.24171448,12.0227905 C3.38933254,11.5865543 1.91252146,10.5556788 2.65913638,5.60592224 Z" id="path8663" fill="#DAEFFC"></path>
                </g>
                <path d="M52.84961,64.28406 L49.17773,78.13366 L60.95117,90.04187 C64.8934537,88.7003704 68.6353207,86.8297649 72.07422,84.48132 L52.84961,64.28406 Z" id="path8789" fill-opacity="0.21568627" fill="#000000"></path>
                <g id="g8791" transform="translate(48.158578, 63.947263)">
                    <path d="M9.33143145,11.5121934 C9.33143145,14.6175566 7.29611618,15.6123688 4.78533572,15.6123688 C2.27462225,15.6123688 0.239239988,14.6175566 0.239239988,11.5121934 C0.239239988,8.4067632 2.69756318,7.15830698 4.78533572,0.221553245 C6.70394529,6.98907701 9.33143145,8.4067632 9.33143145,11.5121934 Z" id="path8793" fill="#75C1F4"></path>
                    <path d="M3.04895319,6.42772393 C1.72284949,8.25575594 0.655414394,13.4693252 2.57033922,13.7852747 C3.88619265,13.2850883 2.19288806,12.1030914 3.04895319,6.42772393 Z" id="path8795" fill="#DAEFFC"></path>
                </g>
            </g>
        </g>
    </g>
</svg>