<?xml version="1.0" encoding="UTF-8"?>
<svg width="93px" height="93px" viewBox="0 0 93 93" version="1.1" xmlns="http://www.w3.org/2000/svg" xmlns:xlink="http://www.w3.org/1999/xlink">
    <!-- Generator: Sketch 53.2 (72643) - https://sketchapp.com -->
    <title>g11074</title>
    <desc>Created with Sketch.</desc>
    <g id="Page-1" stroke="none" stroke-width="1" fill="none" fill-rule="evenodd">
        <g id="g14289" transform="translate(-354.000000, -470.999973)" fill-rule="nonzero">
            <g id="g11074" transform="translate(354.428510, 471.365180)">
                <path d="M46.3658,0.54934 C20.9607015,0.54934 0.3658,21.1442415 0.3658,46.54934 C0.36579947,58.7492989 5.21221389,70.4495794 13.8388874,79.0762532 C22.4655608,87.7029271 34.1658411,92.549342 46.3658,92.549342 C58.5657589,92.549342 70.2660392,87.7029271 78.8927126,79.0762532 C87.5193861,70.4495794 92.3658005,58.7492989 92.3658,46.54934 C92.3658,21.1442415 71.7708985,0.54934 46.3658,0.54934 Z" id="path10937" fill="#3598DB"></path>
                <path d="M59.19588,27.33255 C40.27663,38.40467 31.09179,37.19873 20.65682,54.4927 L56.47713,91.36379 C72.68703,87.70966 85.66617,75.59733 90.43025,59.67825 L59.19588,27.33255 Z" id="path10939" fill-opacity="0.21461188" fill="#000000"></path>
                <path d="M27.74615,57.6924 L67.87328,57.6924 C80.12309,55.01503 76.48543,37.66915 64.54666,39.18815 C60.68601,14.79213 34.48293,22.07119 32.73603,33.57453 C11.24496,32.21253 14.66443,57.61116 27.74615,57.6924 L27.74615,57.6924 Z" id="path10941" fill="#ECF0F3"></path>
                <path d="M64.23828,60.60046 L60.45508,74.50476 L70.93555,85.41882 C74.5481792,83.1225608 77.822608,80.3332794 80.66406,77.13171 L64.23828,60.60046 L64.23828,60.60046 Z" id="path12036" fill-opacity="0.21568627" fill="#000000"></path>
                <g id="g12038" transform="translate(59.545978, 60.262543)">
                    <path d="M9.33143145,11.5121934 C9.33143145,14.6175566 7.29611618,15.6123688 4.78533572,15.6123688 C2.27462225,15.6123688 0.239239988,14.6175566 0.239239988,11.5121934 C0.239239988,8.4067632 2.69756318,7.15830698 4.78533572,0.221553245 C6.70394529,6.98907701 9.33143145,8.4067632 9.33143145,11.5121934 Z" id="path12040" fill="#75C1F4"></path>
                    <path d="M3.04895319,6.42772393 C1.72284949,8.25575594 0.655414394,13.4693252 2.57033922,13.7852747 C3.88619265,13.2850883 2.19288806,12.1030914 3.04895319,6.42772393 Z" id="path12042" fill="#DAEFFC"></path>
                </g>
                <path d="M46.29883,67.70984 L43.48242,78.97741 L55.58789,91.5653 C59.07951,90.84856 62.476,89.72841 65.70898,88.22741 L46.29883,67.70984 Z" id="path10984" fill-opacity="0.21568627" fill="#000000"></path>
                <g id="g10986" transform="translate(42.518173, 67.460145)">
                    <path d="M7.45271497,9.19441957 C7.45271497,11.6745735 5.82717395,12.4690982 3.82189414,12.4690982 C1.81666783,12.4690982 0.191073304,11.6745735 0.191073304,9.19441957 C0.191073304,6.7142121 2.15445718,5.71711017 3.82189414,0.17694747 C5.35422606,5.58195162 7.45271497,6.7142121 7.45271497,9.19441957 Z" id="path10988" fill="#75C1F4"></path>
                    <path d="M2.43510111,5.13361692 C1.37598462,6.59360745 0.523458453,10.757518 2.05284749,11.0098567 C3.10377742,10.6103739 1.75138936,9.66635084 2.43510111,5.13361692 Z" id="path10990" fill="#DAEFFC"></path>
                </g>
                <path d="M27.69531,61.78601 L24.14258,76.00085 L40.23633,92.08679 C42.26669,92.37755 44.31423,92.5322 46.36523,92.54968 C49.75238,92.53008 53.12701,92.13641 56.42773,91.37585 L27.69531,61.78601 Z" id="path10994" fill-opacity="0.21568627" fill="#000000"></path>
                <g id="g10996" transform="translate(22.925453, 61.471896)">
                    <path d="M9.40145266,11.5985786 C9.40145266,14.7272438 7.35086479,15.7295209 4.82124393,15.7295209 C2.29169057,15.7295209 0.241035197,14.7272438 0.241035197,11.5985786 C0.241035197,8.46984589 2.71780516,7.2120215 4.82124393,0.223215737 C6.75425037,7.04152166 9.40145266,8.46984589 9.40145266,11.5985786 Z" id="path10998" fill="#75C1F4"></path>
                    <path d="M3.07183193,6.4759563 C1.73577741,8.3177055 0.660332494,13.5703964 2.58962654,13.8887167 C3.91535388,13.384777 2.20934306,12.1939106 3.07183193,6.4759563 Z" id="path11000" fill="#DAEFFC"></path>
                </g>
            </g>
        </g>
    </g>
</svg>