<?xml version="1.0" encoding="UTF-8"?>
<svg width="93px" height="93px" viewBox="0 0 93 93" version="1.1" xmlns="http://www.w3.org/2000/svg" xmlns:xlink="http://www.w3.org/1999/xlink">
    <!-- Generator: Sketch 53.2 (72643) - https://sketchapp.com -->
    <title>g10433</title>
    <desc>Created with Sketch.</desc>
    <g id="Page-1" stroke="none" stroke-width="1" fill="none" fill-rule="evenodd">
        <g id="g14289" transform="translate(-236.000000, -588.999973)" fill-rule="nonzero">
            <g id="g10433" transform="translate(236.359560, 588.537440)">
                <path d="M46.5625,0.93835 C21.1574015,0.93835 0.5625,21.5332515 0.5625,46.93835 C0.56249947,59.1383089 5.40891389,70.8385894 14.0355874,79.4652632 C22.6622608,88.0919371 34.3625411,92.938352 46.5625,92.938352 C58.7624589,92.938352 70.4627392,88.0919371 79.0894126,79.4652632 C87.7160861,70.8385894 92.5625005,59.1383089 92.5625,46.93835 C92.5625,21.5332515 71.9675985,0.93835 46.5625,0.93835 Z" id="path10357" fill="#3598DB"></path>
                <path d="M59.39258,27.72156 C40.47333,38.79368 31.28849,37.58774 20.85352,54.88171 L56.67383,91.7528 C72.88373,88.09867 85.86287,75.98634 90.62695,60.06726 L59.39258,27.72156 Z" id="path10363" fill-opacity="0.21461188" fill="#000000"></path>
                <path d="M27.94285,58.08141 L68.06998,58.08141 C80.31979,55.40404 76.68213,38.05816 64.74336,39.57716 C60.88271,15.18114 34.67963,22.4602 32.93273,33.96354 C11.44166,32.60154 14.86113,58.00017 27.94285,58.08141 Z" id="path10365" fill="#ECF0F3"></path>
                <path d="M63.1582,62.96765 L62.13477,65.88366 L62.05277,67.59851 L59.06449,64.54968 L59.07449,67.90906 L56.20144,67.25866 L57.60769,68.73718 L55.4573,69.7489 L56.63504,71.02038 L55.50808,71.22741 L57.21511,72.93249 L56.09793,73.94616 L68.85183,87.00085 L69.053,87.00085 C73.3146839,84.6075425 77.1676987,81.5503186 80.46707,77.94421 L69.0823,66.32702 L68.46121,66.11023 L66.87527,64.49695 L66.4241,64.41495 L65.77371,63.77433 L64.553,64.3837 L63.15847,62.96769 L63.1582,62.96765 Z" id="path10369" fill-opacity="0.21568627" fill="#000000"></path>
                <path d="M62.66196,62.75265 C62.2786533,62.7586389 61.9726344,63.0739659 61.97813,63.45728 L61.97813,65.58476 L60.29026,63.89689 C60.1741041,63.7758921 60.0016089,63.7271462 59.8393043,63.7694531 C59.6769996,63.8117601 59.5502494,63.9385083 59.50794,64.1008123 C59.4656306,64.2631163 59.5143739,64.4356123 59.63537,64.55177 L61.97813,66.89453 L61.97813,69.06633 L60.02071,67.93656 L59.16411,64.7372 C59.1132704,64.5351159 58.9337378,64.3918622 58.72541,64.38715 C58.5783781,64.3838515 58.4385179,64.4505772 58.3485724,64.5669347 C58.258627,64.6832922 58.2292873,64.8354512 58.26952,64.97691 L58.88642,67.28167 L57.12076,66.26225 C57.0206476,66.2024967 56.9071077,66.1688983 56.7906,66.16455 C56.469816,66.1527552 56.1827155,66.3622606 56.0960917,66.6713526 C56.0094679,66.9804445 56.1458766,67.3086394 56.42607,67.46527 L58.11846,68.44217 L55.73139,69.08168 C55.5685192,69.1217701 55.4400498,69.246783 55.3955335,69.4085001 C55.3510173,69.5702172 55.3974112,69.7433651 55.5168208,69.8611593 C55.6362305,69.9789534 55.8099942,70.0229848 55.97109,69.97627 L59.25275,69.09706 L61.21198,70.22864 L59.23285,71.37107 L56.0344,70.51357 C55.9896949,70.5009761 55.9433498,70.4951779 55.89692,70.49637 C55.6658786,70.5025403 55.4747457,70.6780919 55.4489982,70.9077771 C55.4232506,71.1374622 55.5707694,71.3509765 55.79471,71.40815 L58.09856,72.02595 L56.3329,73.04536 C56.0004412,73.2371934 55.8864418,73.6622161 56.0782751,73.9946749 C56.2701084,74.3271338 56.6951312,74.4411333 57.02759,74.2493 L58.72089,73.2715 L58.08138,75.65857 C58.0346899,75.8196571 58.0787308,75.9933998 58.1965185,76.1127944 C58.3143062,76.2321891 58.4874362,76.2785802 58.6491412,76.234077 C58.8108462,76.1895738 58.9358595,76.0611302 58.97597,75.89828 L59.85518,72.61661 L61.97813,71.39096 L61.97813,73.83593 L59.63537,76.17778 C59.5143739,76.2939377 59.4656306,76.4664337 59.50794,76.6287377 C59.5502494,76.7910417 59.6769996,76.9177899 59.8393043,76.9600969 C60.0016089,77.0024038 60.1741041,76.9536579 60.29026,76.83266 L61.97813,75.1457 L61.97813,77.18543 C61.9745709,77.4359688 62.1061932,77.6690144 62.3225925,77.7953225 C62.5389917,77.9216305 62.8066383,77.9216305 63.0230375,77.7953225 C63.2394368,77.6690144 63.3710591,77.4359688 63.3675,77.18543 L63.3675,75.23073 L65.11416,76.97739 C65.2303336,77.098313 65.4027933,77.1470006 65.565052,77.1046826 C65.7273106,77.0623645 65.8540245,76.9356506 65.8963426,76.773392 C65.9386606,76.6111333 65.889973,76.4386736 65.76905,76.3225 L63.3675,73.92095 L63.3675,71.47327 L65.41085,72.65279 L66.29097,75.93446 C66.3310805,76.0973102 66.4560938,76.2257538 66.6177988,76.270257 C66.7795038,76.3147602 66.9526338,76.2683691 67.0704215,76.1489744 C67.1882092,76.0295798 67.2322501,75.8558371 67.18556,75.69475 L66.54515,73.30768 L68.31442,74.3289 C68.5296915,74.4593544 68.7986868,74.4631669 69.0175689,74.3388657 C69.2364511,74.2145645 69.3709797,73.9815944 69.3692244,73.729886 C69.3674691,73.4781777 69.2297044,73.2471065 69.00911,73.12587 L67.16656,72.06213 L69.47223,71.44433 C69.6985182,71.3862156 69.8460986,71.1686672 69.8164427,70.9369255 C69.7867869,70.7051839 69.5891803,70.5318089 69.35555,70.53255 C69.3139571,70.5327336 69.2725784,70.538519 69.23253,70.54975 L66.03227,71.40725 L63.99073,70.22864 L66.01328,69.06088 L69.29494,69.94009 C69.4560358,69.9868048 69.6297995,69.9427734 69.7492092,69.8249793 C69.8686188,69.7071851 69.9150127,69.5340372 69.8704965,69.3723201 C69.8259802,69.210603 69.6975108,69.0855901 69.53464,69.0455 L67.14757,68.40599 L68.91684,67.38477 C69.1891431,67.2324532 69.3265071,66.9172889 69.2527224,66.6141301 C69.1789377,66.3109714 68.9121037,66.0941834 68.60026,66.08404 C68.4674778,66.0797869 68.3362601,66.1136932 68.22216,66.18174 L66.37961,67.24548 L66.99741,64.94072 C67.038204,64.796853 67.0070287,64.6421414 66.9137006,64.5253008 C66.8203725,64.4084601 66.6763751,64.3438668 66.52705,64.35186 C66.3244287,64.3627535 66.1524893,64.5042665 66.10283,64.70101 L65.24532,67.90037 L63.3675,68.984 L63.3675,66.80949 L65.76905,64.40704 C65.9060244,64.2738958 65.9472095,64.0703176 65.8727598,63.894401 C65.7983102,63.7184845 65.6234989,63.6063181 65.43256,63.61195 C65.3122407,63.6155336 65.1980429,63.6658179 65.11416,63.75215 L63.3675,65.49972 L63.3675,63.45727 C63.3701932,63.2694193 63.296695,63.0884857 63.1637652,62.9557273 C63.0308354,62.8229689 62.849807,62.7497043 62.66196,62.75264 L62.66196,62.75265 Z" id="path10371" fill="#ECF0F3"></path>
                <path d="M43.54688,68.54382 L42.75977,70.7821 L42.69727,72.10046 L40.40234,69.75866 L40.41034,72.33874 L38.2033,71.83874 L39.28338,72.97351 L37.63104,73.7528 L38.53729,74.72937 L37.67206,74.88757 L38.98065,76.19812 L38.12323,76.97546 L52.50799,92.494992 C56.78838,91.93556 60.96871,90.7764 64.92596,89.05163 L48.09588,71.1239 L47.61932,70.95788 L46.40057,69.71765 L46.05487,69.65515 L45.55487,69.16296 L44.61737,69.63171 L43.54688,68.54382 Z" id="path10375" fill-opacity="0.21568627" fill="#000000"></path>
                <path d="M43.16463,68.37885 C42.8702071,68.3832509 42.6350086,68.6253326 42.6391,68.91976 L42.6391,70.55336 L41.3438,69.25715 C41.2537995,69.1673101 41.1227065,69.1323094 40.9999027,69.1653323 C40.8770988,69.1983552 40.7812409,69.2943847 40.7484376,69.4172474 C40.7156343,69.5401101 40.7508694,69.6711402 40.84087,69.76098 L42.6391,71.5592 L42.6391,73.22717 L41.13665,72.35972 L40.47815,69.90209 C40.4387335,69.7474738 40.3011791,69.6380238 40.14166,69.63435 C40.0289054,69.6318996 39.9216696,69.6830665 39.8526396,69.7722543 C39.7836096,69.8614421 39.7609657,69.9780819 39.79161,70.08662 L40.26649,71.8568 L38.90878,71.07347 C38.8322515,71.0277466 38.7454863,71.0019271 38.65641,70.99837 C38.4095266,70.9885352 38.1881865,71.1494904 38.1214486,71.3873857 C38.0547107,71.6252811 38.1600354,71.877877 38.37601,71.99789 L39.67583,72.74775 L37.84232,73.23982 C37.7153387,73.2688886 37.6144044,73.3650435 37.579215,73.4904666 C37.5440256,73.6158897 37.5802107,73.7505155 37.6735386,73.8413954 C37.7668664,73.9322753 37.9024064,73.96487 38.02685,73.92636 L40.5469,73.25158 L42.05205,74.11993 L40.53243,74.99734 L38.07479,74.33883 C38.0406869,74.3290908 38.0053191,74.3245068 37.96986,74.32523 C37.7912361,74.3284453 37.6427096,74.463655 37.6227784,74.6411925 C37.6028471,74.8187301 37.7176956,74.9835075 37.89116,75.02625 L39.66044,75.50023 L38.30454,76.28356 C38.1333709,76.3757635 38.0259051,76.5537753 38.0240429,76.7481895 C38.0221808,76.9426038 38.1262171,77.1226414 38.2955887,77.2181067 C38.4649603,77.313572 38.6728528,77.3093512 38.83821,77.20709 L40.13804,76.45632 L39.64687,78.28982 C39.5959289,78.4796484 39.7085115,78.6748324 39.8983363,78.7257864 C40.0881612,78.7767405 40.2833529,78.6641714 40.33432,78.47435 L41.0091,75.9534 L42.63909,75.01268 L42.63909,76.8905 L40.84086,78.68873 C40.7477726,78.777899 40.7102118,78.910452 40.7426825,79.0351998 C40.7751533,79.1599476 40.8725737,79.2573661 40.9973222,79.2898344 C41.1220706,79.3223027 41.2546228,79.2847391 41.34379,79.19165 L42.63909,77.89635 L42.63909,79.46211 C42.6396655,79.7564432 42.8784313,79.9947426 43.172765,79.9947426 C43.4670987,79.9947426 43.7058645,79.7564432 43.70644,79.46211 L43.70644,77.96148 L45.04787,79.30291 C45.1377098,79.3929106 45.2687399,79.4281456 45.3916026,79.3953424 C45.5144653,79.3625391 45.6104948,79.2666812 45.6435177,79.1438773 C45.6765405,79.0210735 45.6415398,78.8899806 45.5517,78.79998 L43.70644,76.95563 L43.70644,75.07509 L45.27672,75.98144 L45.95151,78.50149 C46.0027698,78.6906572 46.1973653,78.8027413 46.3867156,78.7521618 C46.5760658,78.7015822 46.6888486,78.5073908 46.63895,78.31786 L46.14779,76.48437 L47.5055,77.2686 C47.6708554,77.370826 47.8787242,77.3750261 48.0480742,77.2795632 C48.2174241,77.1841002 48.3214498,77.0040843 48.3195996,76.80969 C48.3177495,76.6152957 48.2103162,76.4372923 48.03918,76.34507 L46.62448,75.52827 L48.39466,75.05339 C48.5682327,75.0085902 48.6813469,74.84163 48.658591,74.6638192 C48.6358351,74.4860084 48.4843207,74.3529149 48.30506,74.35327 C48.2732261,74.353572 48.2415767,74.3581461 48.21096,74.36687 L45.75424,75.02538 L44.18577,74.11993 L45.73886,73.22354 L48.2589,73.89832 C48.3837242,73.937863 48.5201804,73.905631 48.6141183,73.8144149 C48.7080563,73.7231987 48.7442853,73.5877489 48.7084285,73.4618163 C48.6725717,73.3358837 48.5704274,73.2398329 48.44253,73.21178 L46.60902,72.72061 L47.96764,71.93638 C48.1772675,71.819734 48.283272,71.5775256 48.22673,71.3443884 C48.1701881,71.1112512 47.9650036,70.9445144 47.72523,70.93686 C47.6232537,70.9336168 47.5224855,70.9596799 47.43487,71.01196 L46.02017,71.82876 L46.49415,70.05857 C46.5254685,69.9481354 46.501568,69.8293747 46.4299682,69.7396523 C46.3583685,69.6499299 46.2478708,69.600275 46.13324,69.60631 C45.9775457,69.6148041 45.8455337,69.7237088 45.8076,69.87495 L45.1491,72.33168 L43.70636,73.16476 L43.70636,71.49408 L45.55162,69.64972 C45.6568182,69.5474274 45.6884085,69.3910352 45.6311631,69.25593 C45.5739178,69.1208248 45.4395859,69.0347355 45.29292,69.03916 C45.2003101,69.0417478 45.1123642,69.0803661 45.04779,69.1468 L43.70636,70.48823 L43.70636,68.91976 C43.7083656,68.7755378 43.6518955,68.6366477 43.5498195,68.5347431 C43.4477434,68.4328385 43.3087586,68.376602 43.16454,68.37885 L43.16463,68.37885 Z" id="path10377" fill="#ECF0F3"></path>
                <path d="M26.27344,62.96374 L25.25,65.87976 L25.166,67.5946 L22.17967,64.54577 L22.18967,67.90515 L19.31663,67.25476 L20.72092,68.73327 L18.57249,69.74499 L19.75022,71.01648 L18.62327,71.22351 L20.32834,72.93054 L19.11936,73.97351 L36.08225,91.67859 L36.09025,91.68059 C37.38123,91.97958 38.68453,92.22265 39.9965,92.409105 C40.30591,92.459145 40.61582,92.506025 40.92619,92.54973 C41.9393,92.670105 42.95614,92.756742 43.97502,92.809496 C44.83627,92.876756 45.69924,92.919742 46.56291,92.938402 C47.98507,92.925492 49.40587,92.846632 50.82072,92.702074 C51.13621,92.666924 51.45133,92.628514 51.76603,92.586839 C53.42724,92.396258 55.07683,92.11524 56.70744,91.74504 L32.18596,66.33098 L31.56877,66.11028 L29.98283,64.497 L29.53361,64.415 L28.88127,63.77438 L27.66838,64.37985 L26.27344,62.96374 Z" id="path10381" fill-opacity="0.21568627" fill="#000000"></path>
                <path d="M25.77688,62.74904 C25.3935693,62.7550234 25.0875444,63.070352 25.09304,63.45367 L25.09304,65.58115 L23.40517,63.89328 C23.2890297,63.7722104 23.116499,63.7234098 22.9541498,63.7657083 C22.7918006,63.8080067 22.6650167,63.9347906 22.6227183,64.0971398 C22.5804198,64.259489 22.6292204,64.4320197 22.75029,64.54816 L25.09304,66.89092 L25.09304,69.06272 L23.13562,67.93295 L22.27902,64.73359 C22.2281804,64.5315059 22.0486478,64.3882522 21.84032,64.38354 C21.6931314,64.3799498 21.5530036,64.4465529 21.462847,64.5629538 C21.3726904,64.6793546 21.3432458,64.8316859 21.38353,64.9733 L22.00133,67.27806 L20.23567,66.25864 C20.1355576,66.1988867 20.0220177,66.1652883 19.90551,66.16094 C19.584726,66.1491452 19.2976255,66.3586506 19.2110017,66.6677426 C19.1243779,66.9768345 19.2607866,67.3050294 19.54098,67.46166 L21.23338,68.43856 L18.8463,69.07807 C18.6834292,69.1181601 18.5549598,69.243173 18.5104435,69.4048901 C18.4659273,69.5666072 18.5123212,69.7397551 18.6317308,69.8575493 C18.7511405,69.9753434 18.9249042,70.0193748 19.086,69.97266 L22.36767,69.09345 L24.3269,70.22503 L22.34777,71.36746 L19.14932,70.50996 C19.1046117,70.4973651 19.0582632,70.4915669 19.01183,70.49276 C18.7807886,70.4989303 18.5896557,70.6744819 18.5639082,70.9041671 C18.5381606,71.1338522 18.6856794,71.3473665 18.90962,71.40454 L21.21348,72.02234 L19.44782,73.04175 C19.1163086,73.2340167 19.0029958,73.6583517 19.1945256,73.9902893 C19.3860554,74.322227 19.8101378,74.4364821 20.1425,74.24569 L21.8358,73.26789 L21.19629,75.65496 C21.1495999,75.8160471 21.1936408,75.9897898 21.3114285,76.1091844 C21.4292162,76.2285791 21.6023462,76.2749702 21.7640512,76.230467 C21.9257562,76.1859638 22.0507695,76.0575202 22.09088,75.89467 L22.97009,72.613 L25.09304,71.38735 L25.09304,73.83232 L22.75029,76.17417 C22.6292204,76.2903103 22.5804198,76.462841 22.6227183,76.6251902 C22.6650167,76.7875394 22.7918006,76.9143233 22.9541498,76.9566217 C23.116499,76.9989202 23.2890297,76.9501196 23.40517,76.82905 L25.09304,75.14209 L25.09304,77.18182 C25.0894809,77.4323588 25.2211032,77.6654044 25.4375025,77.7917125 C25.6539017,77.9180205 25.9215483,77.9180205 26.1379475,77.7917125 C26.3543468,77.6654044 26.4859691,77.4323588 26.48241,77.18182 L26.48241,75.22712 L28.22908,76.97378 C28.3452377,77.0947761 28.5177337,77.1435194 28.6800377,77.10121 C28.8423417,77.0589006 28.9690899,76.9321504 29.0113969,76.7698457 C29.0537038,76.6075411 29.0049579,76.4350459 28.88396,76.31889 L26.48241,73.91734 L26.48241,71.46966 L28.52577,72.64918 L29.40588,75.93085 C29.4459905,76.0937002 29.5710038,76.2221438 29.7327088,76.266647 C29.8944138,76.3111502 30.0675438,76.2647591 30.1853315,76.1453644 C30.3031192,76.0259698 30.3471601,75.8522271 30.30047,75.69114 L29.66006,73.30407 L31.42933,74.32529 C31.6446015,74.4557444 31.9135968,74.4595569 32.1324789,74.3352557 C32.3513611,74.2109545 32.4858897,73.9779844 32.4841344,73.726276 C32.4823791,73.4745677 32.3446144,73.2434965 32.12402,73.12226 L30.28148,72.05852 L32.58714,71.44072 C32.8134282,71.3826056 32.9610086,71.1650572 32.9313527,70.9333155 C32.9016969,70.7015739 32.7040903,70.5281989 32.47046,70.52894 C32.4288671,70.5291236 32.3874884,70.534909 32.34744,70.54614 L29.14719,71.40364 L27.10564,70.22503 L29.12819,69.05727 L32.40986,69.93648 C32.5709558,69.9831948 32.7447195,69.9391634 32.8641292,69.8213693 C32.9835388,69.7035751 33.0299327,69.5304272 32.9854165,69.3687101 C32.9409002,69.206993 32.8124308,69.0819801 32.64956,69.04189 L30.26248,68.40238 L32.03085,67.38116 C32.3030374,67.2289376 32.4404419,66.913997 32.36689,66.6109331 C32.293338,66.3078691 32.0268541,66.09095 31.71517,66.08043 C31.5820844,66.0760035 31.4505301,66.109916 31.33617,66.17813 L29.49453,67.24097 L30.11233,64.93711 C30.153124,64.793243 30.1219487,64.6385314 30.0286206,64.5216908 C29.9352925,64.4048501 29.7912951,64.3402568 29.64197,64.34825 C29.4393449,64.3591393 29.2674005,64.5006531 29.21774,64.6974 L28.36024,67.89585 L26.48241,68.98039 L26.48241,66.80588 L28.88396,64.40343 C29.0209329,64.270287 29.0621184,64.0667114 28.9876715,63.8907959 C28.9132245,63.7148803 28.7384171,63.6027124 28.54748,63.60834 C28.4271607,63.6119236 28.3129629,63.6622079 28.22908,63.74854 L26.48241,65.49611 L26.48241,63.45366 C26.4851032,63.2658111 26.4116063,63.084879 26.2786787,62.9521209 C26.1457511,62.8193629 25.9647253,62.7460971 25.77688,62.74903 L25.77688,62.74904 Z" id="path10383" fill="#ECF0F3"></path>
            </g>
        </g>
    </g>
</svg>