<?xml version="1.0" encoding="UTF-8"?>
<svg width="93px" height="93px" viewBox="0 0 93 93" version="1.1" xmlns="http://www.w3.org/2000/svg" xmlns:xlink="http://www.w3.org/1999/xlink">
    <!-- Generator: Sketch 53.2 (72643) - https://sketchapp.com -->
    <title>g11251</title>
    <desc>Created with Sketch.</desc>
    <g id="Page-1" stroke="none" stroke-width="1" fill="none" fill-rule="evenodd">
        <g id="g14289" transform="translate(-472.000000, -0.999973)" fill-rule="nonzero">
            <g id="g11251" transform="translate(471.742730, 0.811570)">
                <path d="M46.92383,0.85827 C21.5187315,0.85827 0.92383,21.4531715 0.92383,46.85827 C0.92383,72.2633685 21.5187315,92.85827 46.92383,92.85827 C72.3289285,92.85827 92.92383,72.2633685 92.92383,46.85827 C92.92383,21.4531715 72.3289285,0.85827 46.92383,0.85827 L46.92383,0.85827 Z" id="rect11769" fill="#3598DB"></path>
                <path d="M47.68555,11.91296 L45.36914,23.05945 L40.59766,18.04968 L40.26172,27.85437 L33.74023,21.03796 L35.5293,29.84851 L38.36523,32.97937 L36.45703,34.31921 L33.55273,31.16882 L22.42969,24.39148 L34.46484,36.76062 L33.22266,38.43835 L30.18164,35.45202 L20.83984,33.1864 L27.50586,40.15906 L18.06445,40.16906 L24.35156,46.65539 L12.26758,47.79015 L18.5,54.07726 L18.13867,55.08117 L23.34375,60.36242 L20.91016,61.84094 L25.95117,67.01672 L21.80664,71.25304 L42.5,92.63781 C43.9702106,92.7823701 45.4465316,92.8560222 46.92383,92.85851 C72.3289285,92.85851 92.92383,72.2636085 92.92383,46.85851 C92.9212491,45.7185634 92.8762948,44.5791068 92.78906,43.4425 L71.74414,21.92492 L66.20703,24.89953 L62.12305,20.6593 L59.53125,22.60461 L55.15625,17.86828 L47.68555,11.9132 L47.68555,11.91296 Z" id="path11773" fill-opacity="0.21461188" fill="#000000"></path>
                <path d="M46.947,11.58315 C46.0992183,11.5959023 45.4220035,12.2929738 45.43375,13.14077 L45.43375,26.08471 C45.4257017,26.6389104 45.7167544,27.1544917 46.1954095,27.4339413 C46.6740647,27.7133909 47.2661253,27.7133909 47.7447805,27.4339413 C48.2234356,27.1544917 48.5144883,26.6389104 48.50644,26.08471 L48.50644,13.14077 C48.5121921,12.72561 48.3496824,12.3257941 48.0559204,12.0323749 C47.7621584,11.7389558 47.362153,11.5769131 46.947,11.58315 L46.947,11.58315 Z M39.60941,17.51873 C39.1218915,17.5076496 38.6580572,17.7286469 38.3595373,18.1142412 C38.0610174,18.4998355 37.9632581,19.0042412 38.09611,19.47344 L40.1621,27.18373 C40.2956523,27.7234129 40.7103232,28.1488538 41.2464051,28.2961971 C41.782487,28.4435404 42.3563472,28.2897996 42.7469677,27.8941867 C43.1375881,27.4985739 43.2840291,26.9228076 43.12989,26.38864 L41.0639,18.67835 C40.8947101,18.008901 40.2997268,17.5345392 39.60941,17.51873 L39.60941,17.51873 Z M54.28372,17.52073 C53.6116274,17.5567531 53.0412112,18.026001 52.87629,18.67854 L50.80941,26.38883 C50.5898521,27.2086055 51.0764246,28.0511517 51.8962001,28.2707098 C52.7159756,28.4902678 53.5585219,28.0036955 53.77808,27.18392 L55.84408,19.47363 C55.9572074,19.0739954 55.9037289,18.6455854 55.6958309,18.2860244 C55.487933,17.9264635 55.1433268,17.6663833 54.74054,17.56505 C54.5913433,17.5274959 54.4373524,17.5125627 54.28372,17.52075 L54.28372,17.52073 Z M61.2704,20.37365 C60.7091937,20.3689816 60.190088,20.6706661 59.91632,21.16059 L55.92457,28.07308 C55.648824,28.5485266 55.6480341,29.1350517 55.9224986,29.6112393 C56.196963,30.0874269 56.7048765,30.3807462 57.2544994,30.3804677 C57.8041222,30.3801892 58.3117382,30.0863555 58.58572,29.60989 L62.57655,22.6965 C62.7890227,22.3398638 62.8481458,21.9124289 62.740459,21.511508 C62.6327722,21.1105872 62.3674401,20.7703005 62.00487,20.56812 C61.7801868,20.4428336 61.5276428,20.375966 61.2704,20.37365 L61.2704,20.37365 Z M32.62277,20.37457 C32.0811299,20.3956896 31.590692,20.700641 31.3321576,21.1770652 C31.0736232,21.6534894 31.0852484,22.2308882 31.36275,22.69652 L35.35354,29.60901 C35.622892,30.0943892 36.1331059,30.3967448 36.6882035,30.399939 C37.243301,30.4031332 37.7569607,30.1066692 38.0318807,29.6244219 C38.3068007,29.1421746 38.300229,28.5491367 38.01469,28.0731 L34.02391,21.16062 C33.7419552,20.6558529 33.2005099,20.352098 32.62277,20.37457 L32.62277,20.37457 Z M23.25535,21.40575 C22.6298083,21.4056402 22.0666461,21.7847682 21.8313824,22.3643831 C21.5961188,22.9439979 21.7357251,23.6083773 22.18438,24.04428 L31.33742,33.19641 C31.7235424,33.5942814 32.2940664,33.7532777 32.830314,33.6124567 C33.3665617,33.4716358 33.7853551,33.0528404 33.9261736,32.5165921 C34.0669921,31.9803438 33.9079931,31.4098205 33.51012,31.0237 L24.35801,21.87158 C24.0685403,21.5736293 23.6707622,21.4055839 23.25535,21.40575 L23.25535,21.40575 Z M70.6387,21.40667 C70.2394859,21.418445 69.8605438,21.5852015 69.58218,21.8716 L60.42919,31.02463 C60.0311195,31.4107071 59.8719692,31.9813264 60.0127616,32.5176968 C60.1535541,33.0540671 60.5724416,33.4729566 61.1088113,33.6137515 C61.645181,33.7545464 62.2158011,33.5953987 62.60188,33.19733 L71.75492,24.04431 C72.0530877,23.7549484 72.221357,23.3571676 72.221357,22.941675 C72.221357,22.5261824 72.0530877,22.1284016 71.75492,21.83904 L71.75492,21.83904 C71.4568214,21.5501842 71.0545344,21.3942276 70.63963,21.40667 L70.6387,21.40667 Z M46.96965,30.61216 C42.7144208,30.6121918 38.6334971,32.3026507 35.6246801,35.3116365 C32.6158631,38.3206223 30.9256331,42.4016409 30.92584,46.65687 C30.9259135,55.5175891 38.1089309,62.7006007 46.96965,62.700667 C55.8303691,62.7006007 63.0133865,55.5175891 63.01346,46.65687 C63.0136669,42.4016409 61.3234369,38.3206223 58.3146199,35.3116365 C55.3058029,32.3026507 51.2248792,30.6121918 46.96965,30.61216 L46.96965,30.61216 Z M71.76576,30.83287 C71.4722253,30.8235734 71.1821749,30.8985951 70.92996,31.04905 L64.01659,35.04078 C63.5245653,35.3066567 63.2158627,35.8188785 63.2106104,36.3781201 C63.205358,36.9373617 63.5043856,37.4552912 63.9913298,37.7303623 C64.478274,38.0054333 65.0762223,37.9941986 65.55249,37.70103 L72.46586,33.71021 C72.8282201,33.5075653 73.0931515,33.166906 73.2003268,32.7658036 C73.3075021,32.3647012 73.2477981,31.9372987 73.03481,31.58092 C72.7666893,31.1318234 72.2885259,30.8499668 71.76576,30.83287 L71.76576,30.83287 Z M22.28117,30.83379 C21.5717522,30.8075612 20.9367227,31.2707484 20.7449929,31.9542697 C20.5532632,32.6377909 20.8547546,33.3636751 21.47432,33.71023 L28.38681,37.70105 C28.8628503,37.9866517 29.45593,37.9932602 29.938216,37.7183369 C30.4205021,37.4434135 30.7169857,36.9297164 30.7137719,36.3745837 C30.7105581,35.819451 30.4081468,35.309221 29.92271,35.0399 L23.01022,31.04907 C22.7890707,30.9173788 22.5383822,30.8433534 22.28117,30.83379 L22.28117,30.83379 Z M19.33145,37.72457 C18.5635982,37.7432863 17.9275205,38.3261416 17.8419494,39.0894399 C17.7563783,39.8527381 18.2476038,40.561972 18.99225,40.75025 L26.70164,42.81622 C27.2348341,42.9675629 27.8082118,42.8200131 28.2021208,42.4300947 C28.5960298,42.0401763 28.7494101,41.4683307 28.6035041,40.9336232 C28.457598,40.3989158 28.0350226,39.9842316 27.49766,39.84843 L19.78734,37.78246 C19.6391384,37.7404154 19.4854566,37.7208971 19.33145,37.72456 L19.33145,37.72457 Z M74.56168,37.72457 C74.4234156,37.7253868 74.2858941,37.7448626 74.15284,37.78247 L66.44164,39.84844 C65.9041341,39.9841044 65.4813827,40.3987891 65.3353893,40.9335819 C65.1893959,41.4683747 65.3427998,42.0403445 65.7368149,42.4303054 C66.13083,42.8202663 66.7043557,42.9677466 67.23761,42.81623 L74.94793,40.75026 C75.350416,40.648336 75.6945221,40.3878663 75.901886,40.0281668 C76.1092499,39.6684673 76.1622187,39.2401593 76.04873,38.84078 C75.8599628,38.1769818 75.2517845,37.7204749 74.56168,37.72458 L74.56168,37.72457 Z M13.45468,45.12008 C12.9006429,45.1122864 12.3853235,45.4033975 12.1060307,45.8819509 C11.8267379,46.3605044 11.8267379,46.9523656 12.1060307,47.4309191 C12.3853235,47.9094725 12.9006429,48.2005836 13.45468,48.19279 L26.39862,48.19279 C26.9526571,48.2005836 27.4679765,47.9094725 27.7472693,47.4309191 C28.0265621,46.9523656 28.0265621,46.3605044 27.7472693,45.8819509 C27.4679765,45.4033975 26.9526571,45.1122864 26.39862,45.12008 L13.45468,45.12008 L13.45468,45.12008 Z M67.54064,45.12008 C66.9866029,45.1122864 66.4712835,45.4033975 66.1919907,45.8819509 C65.9126979,46.3605044 65.9126979,46.9523656 66.1919907,47.4309191 C66.4712835,47.9094725 66.9866029,48.2005836 67.54064,48.19279 L80.48462,48.19279 C80.899928,48.198782 81.2999703,48.0363811 81.5935813,47.7425968 C81.8871923,47.4488125 82.0493571,47.0486744 82.04312,46.63337 C82.0303911,45.7852241 81.3327731,45.1078431 80.48462,45.12008 L67.54064,45.12008 L67.54064,45.12008 Z M27.11141,50.438764 C26.9728344,50.4394938 26.8349945,50.4589671 26.70164,50.496654 L18.99225,52.562619 C18.4526073,52.6962082 18.0272147,53.110877 17.8798939,53.6469338 C17.732573,54.1829907 17.8863043,54.7568162 18.2818848,55.1474265 C18.6774653,55.5380368 19.2531886,55.6845007 19.78734,55.530414 L27.49766,53.464446 C28.2501284,53.2732697 28.741757,52.5508081 28.643445,51.7806835 C28.5451331,51.010559 27.887774,50.4347739 27.11141,50.438764 L27.11141,50.438764 Z M66.78264,50.438764 C66.0146397,50.457083 65.3781899,51.0398077 65.2923866,51.8032197 C65.2065833,52.5666317 65.6977977,53.2760997 66.44257,53.464446 L74.15191,55.530414 C74.6850823,55.6816878 75.2584032,55.5341081 75.6522696,55.1442033 C76.046136,54.7542985 76.1995037,54.1824988 76.0536273,53.6478245 C75.9077509,53.1131503 75.4852393,52.698469 74.94793,52.562619 L67.23761,50.496654 C67.0897036,50.4547042 66.9363388,50.4351902 66.78264,50.438764 L66.78264,50.438764 Z M29.22261,55.395636 C28.9290747,55.3863412 28.6390243,55.461365 28.38681,55.611822 L21.47432,59.602647 C20.988893,59.871973 20.6864909,60.3822001 20.6832802,60.9373267 C20.6800694,61.4924533 20.9765493,62.0061442 21.4588285,62.2810673 C21.9411076,62.5559903 22.5341802,62.5493886 23.01022,62.263798 L29.92271,58.272973 C30.5256012,57.9364046 30.8299379,57.2390099 30.6666974,56.5681085 C30.5034568,55.8972072 29.912736,55.4175936 29.22261,55.395636 L29.22261,55.395636 Z M64.82432,55.395636 C64.1140691,55.368141 63.4776662,55.8313852 63.2855601,56.5157152 C63.0934541,57.2000453 63.3957946,57.9268149 64.01659,58.272973 L70.92903,62.263798 C71.4044363,62.5389107 71.9905415,62.5393258 72.466337,62.2648867 C72.9421325,61.9904476 73.2352444,61.4828996 73.2351459,60.933629 C73.2350475,60.3843585 72.9417538,59.8769156 72.46586,59.602647 L65.55337,55.611822 C65.3323056,55.4798131 65.0816117,55.4054746 64.82432,55.395636 L64.82432,55.395636 Z M61.50016,59.650585 C60.8746134,59.6504706 60.3114449,60.0296003 60.0761803,60.6092201 C59.8409156,61.1888399 59.9805271,61.8532244 60.42919,62.289126 L69.58218,71.441248 C69.9683715,71.8387889 70.5387308,71.9975348 71.0747731,71.8566755 C71.6108154,71.7158162 72.0294536,71.297185 72.1703221,70.7611452 C72.3111905,70.2251053 72.1524544,69.6547433 71.75492,69.268545 L62.60188,60.116423 C62.3126389,59.8187034 61.9152472,59.6506751 61.50016,59.650585 L61.50016,59.650585 Z M32.3939,59.651512 C31.9946993,59.6632983 31.6157733,59.8300555 31.33742,60.116446 L22.18438,69.268568 C21.7961903,69.6568347 21.6446464,70.2227156 21.786841,70.7530202 C21.9290357,71.2833249 22.3433627,71.6974744 22.8737282,71.8394419 C23.4040937,71.9814093 23.9699096,71.829623 24.35801,71.441267 L33.51012,62.289145 C33.964527,61.8474642 34.1011671,61.1721187 33.8541987,60.5885312 C33.6072303,60.0049438 33.0273184,59.632836 32.3939,59.651512 L32.3939,59.651512 Z M36.70854,62.915992 C36.1468127,62.9111697 35.6272281,63.2132773 35.35354,63.703844 L31.36275,70.616328 C31.0773109,71.092361 31.0708001,71.6853344 31.345718,72.1675201 C31.620636,72.6497058 32.1342399,72.9461361 32.689283,72.9429685 C33.2443262,72.9398009 33.7545133,72.637528 34.02391,72.152236 L38.01469,65.239753 C38.2967733,64.7670054 38.3043846,64.1794706 38.0346423,63.6995743 C37.7649001,63.219678 37.2590294,62.9207634 36.70854,62.915992 L36.70854,62.915992 Z M57.18551,62.917892 C56.6437047,62.9387005 56.1529767,63.243529 55.8942234,63.7200084 C55.6354701,64.1964879 55.6470027,64.7740703 55.92457,65.239841 L59.91632,72.152325 C60.1821428,72.6444524 60.6943961,72.953253 61.2537021,72.9585364 C61.8130081,72.9638198 62.3310035,72.6647512 62.6060757,72.1777333 C62.8811478,71.6907153 62.8698387,71.0926908 62.57655,70.616421 L58.58572,63.703938 C58.3039179,63.1994787 57.7629202,62.8957749 57.18551,62.917892 L57.18551,62.917892 Z M52.32452,64.969386 C51.8368402,64.9580048 51.3727304,65.1788752 51.0739925,65.5645134 C50.7752547,65.9501516 50.6773864,66.4547341 50.81029,66.924093 L52.87629,74.634376 C53.0098337,75.1740677 53.4245044,75.5995194 53.9605915,75.7468683 C54.4966785,75.8942171 55.0705464,75.740475 55.4611696,75.3448558 C55.8517927,74.9492366 55.9982296,74.3734612 55.84408,73.83929 L53.77808,66.129002 C53.6089814,65.4598808 53.0144869,64.9856071 52.32452,64.969386 L52.32452,64.969386 Z M41.72334,64.970313 C41.67209,64.968054 41.6207591,64.968363 41.56954,64.971239 C40.8974439,65.0072577 40.3270226,65.476506 40.1621,66.129048 L38.09611,73.839336 C37.9419604,74.3735072 38.0883973,74.9492826 38.4790204,75.3449018 C38.8696436,75.740521 39.4435115,75.8942631 39.9795985,75.7469143 C40.5156856,75.5995654 40.9303563,75.1741137 41.0639,74.634422 L43.12989,66.924134 C43.2577661,66.4729411 43.1725873,65.9880514 42.8985934,65.6074535 C42.6245996,65.2268556 42.1917928,64.9922246 41.72334,64.970331 L41.72334,64.970313 Z M46.947,65.669518 C46.0988607,65.6822687 45.4215001,66.3798944 45.43375,67.228041 L45.43375,80.171988 C45.4257017,80.7261884 45.7167544,81.2417697 46.1954095,81.5212193 C46.6740647,81.8006689 47.2661253,81.8006689 47.7447805,81.5212193 C48.2234356,81.2417697 48.5144883,80.7261884 48.50644,80.171988 L48.50644,67.228041 C48.5124384,66.8127255 48.3500376,66.4126741 48.0562482,66.1190574 C47.7624588,65.8254408 47.3623119,65.6632753 46.947,65.669518 L46.947,65.669518 Z" id="path7237" fill="#F2C512"></path>
                <path d="M52.2793,39.69421 C33.36002,50.76635 24.19474,49.53891 13.75977,66.83288 L37.69531,91.91882 C40.73197,92.54213 43.82386,92.85688 46.92383,92.85827 C62.10122,92.85797 76.30164,85.37119 84.87695,72.84851 L52.2793,39.69421 Z" id="path11859" fill-opacity="0.21461188" fill="#000000"></path>
                <path d="M21.01832,70.210969 L61.14545,70.210969 C73.39527,67.533604 69.75761,50.187721 57.81885,51.70672 C53.95817,27.3107 27.75513,34.58976 26.00822,46.0931 C4.51716,44.7311 7.9366,70.129737 21.01832,70.210969 L21.01832,70.210969 Z" id="path11861" fill="#ECF0F3"></path>
                <path d="M58.75,67.57312 L54.9668,81.47741 L63.0625,89.90906 C67.1988508,88.3513221 71.0891017,86.2055642 74.61328,83.53796 L58.75,67.57312 Z" id="path11137" fill-opacity="0.21568627" fill="#000000"></path>
                <g id="g11139" transform="translate(54.057478, 67.234813)">
                    <path d="M9.33143145,11.5121934 C9.33143145,14.6175566 7.29611618,15.6123688 4.78533572,15.6123688 C2.27462225,15.6123688 0.239239988,14.6175566 0.239239988,11.5121934 C0.239239988,8.4067632 2.69756318,7.15830698 4.78533572,0.221553245 C6.70394529,6.98907701 9.33143145,8.4067632 9.33143145,11.5121934 Z" id="path11141" fill="#75C1F4"></path>
                    <path d="M3.04895319,6.42772393 C1.72284949,8.25575594 0.655414394,13.4693252 2.57033922,13.7852747 C3.88619265,13.2850883 2.19288806,12.1030914 3.04895319,6.42772393 Z" id="path11143" fill="#DAEFFC"></path>
                </g>
                <path d="M40.81055,74.68249 L37.99414,85.95007 L44.52344,92.73913 C45.3224,92.79973 46.1228,92.83947 46.92383,92.85827 C50.2855,92.83897 53.63494,92.45126 56.91211,91.70202 L40.81055,74.68249 Z" id="path11145" fill-opacity="0.21568627" fill="#000000"></path>
                <path d="M22.20703,68.75866 L18.6543,82.97351 L19.09961,83.41882 C26.7227,89.21941 35.96649,92.49549 45.54102,92.78991 L22.20703,68.75866 Z" id="path11153" fill-opacity="0.21568627" fill="#000000"></path>
                <g id="g11155" transform="translate(17.436953, 68.444166)">
                    <path d="M9.40145266,11.5985786 C9.40145266,14.7272438 7.35086479,15.7295209 4.82124393,15.7295209 C2.29169057,15.7295209 0.241035197,14.7272438 0.241035197,11.5985786 C0.241035197,8.46984589 2.71780516,7.2120215 4.82124393,0.223215737 C6.75425037,7.04152166 9.40145266,8.46984589 9.40145266,11.5985786 Z" id="path11157" fill="#75C1F4"></path>
                    <path d="M3.07183193,6.4759563 C1.73577741,8.3177055 0.660332494,13.5703964 2.58962654,13.8887167 C3.91535388,13.384777 2.20934306,12.1939106 3.07183193,6.4759563 Z" id="path11159" fill="#DAEFFC"></path>
                </g>
                <g id="g11147" transform="translate(37.029673, 74.432415)">
                    <path d="M7.45271497,9.19441957 C7.45271497,11.6745735 5.82717395,12.4690982 3.82189414,12.4690982 C1.81666783,12.4690982 0.191073304,11.6745735 0.191073304,9.19441957 C0.191073304,6.7142121 2.15445718,5.71711017 3.82189414,0.17694747 C5.35422606,5.58195162 7.45271497,6.7142121 7.45271497,9.19441957 Z" id="path11149" fill="#75C1F4"></path>
                    <path d="M2.43510111,5.13361692 C1.37598462,6.59360745 0.523458453,10.757518 2.05284749,11.0098567 C3.10377742,10.6103739 1.75138936,9.66635084 2.43510111,5.13361692 Z" id="path11151" fill="#DAEFFC"></path>
                </g>
            </g>
        </g>
    </g>
</svg>