<?xml version="1.0" encoding="UTF-8"?>
<svg width="93px" height="93px" viewBox="0 0 93 93" version="1.1" xmlns="http://www.w3.org/2000/svg" xmlns:xlink="http://www.w3.org/1999/xlink">
    <!-- Generator: Sketch 53.2 (72643) - https://sketchapp.com -->
    <title>g12461</title>
    <desc>Created with Sketch.</desc>
    <g id="Page-1" stroke="none" stroke-width="1" fill="none" fill-rule="evenodd">
        <g id="g14289" transform="translate(-354.000000, -0.999973)" fill-rule="nonzero">
            <g id="g12461" transform="translate(354.284392, 1.268500)">
                <path d="M46.50992,0.40134 C21.1048215,0.40134 0.50992,20.9962415 0.50992,46.40134 C0.50992,71.8064385 21.1048215,92.40134 46.50992,92.40134 C71.9150185,92.40134 92.50992,71.8064385 92.50992,46.40134 C92.50992,20.9962415 71.9150185,0.40134 46.50992,0.40134 Z" id="path12378" fill="#3598DB"></path>
                <path d="M47.27164,11.45603 L44.95523,22.60252 L40.18375,17.59275 L39.84781,27.39744 L33.32632,20.58103 L35.11539,29.39158 L37.95132,32.52244 L36.04312,33.86228 L33.13882,30.71189 L22.01578,23.93455 L34.05093,36.30369 L32.80875,37.98142 L29.76773,34.99509 L20.42593,32.72947 L27.09195,39.70213 L17.65054,39.71213 L23.93765,46.19846 L11.85367,47.33322 L18.08609,53.62033 L17.72476,54.62424 L22.92984,59.90549 L20.49625,61.38401 L25.53726,66.55979 L21.39273,70.79611 L42.08609,92.18088 C43.5563006,92.3254401 45.0326216,92.3990922 46.50992,92.40158 C71.9150185,92.40158 92.50992,71.8066785 92.50992,46.40158 C92.5073391,45.2616334 92.4623848,44.1221768 92.37515,42.98557 L71.33023,21.46799 L65.79312,24.4426 L61.70914,20.20237 L59.11734,22.14768 L54.74234,17.41135 L47.27164,11.45627 L47.27164,11.45603 Z" id="path12380" fill-opacity="0.21461188" fill="#000000"></path>
                <path d="M46.53309,11.12622 C45.6853083,11.1389723 45.0080935,11.8360438 45.01984,12.68384 L45.01984,25.62778 C45.0117917,26.1819804 45.3028444,26.6975617 45.7814995,26.9770113 C46.2601547,27.2564609 46.8522153,27.2564609 47.3308705,26.9770113 C47.8095256,26.6975617 48.1005783,26.1819804 48.09253,25.62778 L48.09253,12.68384 C48.0982821,12.26868 47.9357724,11.8688641 47.6420104,11.5754449 C47.3482484,11.2820258 46.948243,11.1199831 46.53309,11.12622 L46.53309,11.12622 Z M39.1955,17.0618 C38.7079815,17.0507196 38.2441472,17.2717169 37.9456273,17.6573112 C37.6471074,18.0429055 37.5493481,18.5473112 37.6822,19.01651 L39.74819,26.7268 C39.8817423,27.2664829 40.2964132,27.6919238 40.8324951,27.8392671 C41.368577,27.9866104 41.9424372,27.8328696 42.3330577,27.4372567 C42.7236781,27.0416439 42.8701191,26.4658776 42.71598,25.93171 L40.64999,18.22142 C40.4808001,17.551971 39.8858168,17.0776092 39.1955,17.0618 L39.1955,17.0618 Z M53.86981,17.0638 C53.1977174,17.0998231 52.6273012,17.569071 52.46238,18.22161 L50.3955,25.9319 C50.2534709,26.4622018 50.4051432,27.0279926 50.7933834,27.4161443 C51.1816237,27.8042961 51.747449,27.9558394 52.2777184,27.8136893 C52.8079879,27.6715393 53.2221409,27.2572918 53.36417,26.72699 L55.43017,19.0167 C55.5432974,18.6170654 55.4898189,18.1886554 55.2819209,17.8290944 C55.074023,17.4695335 54.7294168,17.2094533 54.32663,17.10812 C54.1774333,17.0705659 54.0234424,17.0556327 53.86981,17.06382 L53.86981,17.0638 Z M60.85649,19.91672 C60.2952837,19.9120516 59.776178,20.2137361 59.50241,20.70366 L55.51066,27.61615 C55.234914,28.0915966 55.2341241,28.6781217 55.5085886,29.1543093 C55.783053,29.6304969 56.2909665,29.9238162 56.8405894,29.9235377 C57.3902122,29.9232592 57.8978282,29.6294255 58.17181,29.15296 L62.16264,22.23957 C62.3751127,21.8829338 62.4342358,21.4554989 62.326549,21.054578 C62.2188622,20.6536572 61.9535301,20.3133705 61.59096,20.11119 C61.3662768,19.9859036 61.1137328,19.919036 60.85649,19.91672 L60.85649,19.91672 Z M32.20886,19.91764 C31.6672199,19.9387596 31.176782,20.243711 30.9182476,20.7201352 C30.6597132,21.1965594 30.6713384,21.7739582 30.94884,22.23959 L34.93963,29.15208 C35.208982,29.6374592 35.7191959,29.9398148 36.2742935,29.943009 C36.829391,29.9462032 37.3430507,29.6497392 37.6179707,29.1674919 C37.8928907,28.6852446 37.886319,28.0922067 37.60078,27.61617 L33.61,20.70369 C33.3280452,20.1989229 32.7865999,19.895168 32.20886,19.91764 L32.20886,19.91764 Z M22.84144,20.94882 C22.2158983,20.9487102 21.6527361,21.3278382 21.4174724,21.9074531 C21.1822088,22.4870679 21.3218151,23.1514473 21.77047,23.58735 L30.92351,32.73948 C31.3096324,33.1373514 31.8801564,33.2963477 32.416404,33.1555267 C32.9526517,33.0147058 33.3714451,32.5959104 33.5122636,32.0596621 C33.6530821,31.5234138 33.4940831,30.9528905 33.09621,30.56677 L23.9441,21.41465 C23.6546303,21.1166993 23.2568522,20.9486539 22.84144,20.94882 L22.84144,20.94882 Z M70.22479,20.94974 C69.8255759,20.961515 69.4466338,21.1282715 69.16827,21.41467 L60.01528,30.5677 C59.6172095,30.9537771 59.4580592,31.5243964 59.5988516,32.0607668 C59.7396441,32.5971371 60.1585316,33.0160266 60.6949013,33.1568215 C61.231271,33.2976164 61.8018911,33.1384687 62.18797,32.7404 L71.34101,23.58738 C71.6391777,23.2980184 71.807447,22.9002376 71.807447,22.484745 C71.807447,22.0692524 71.6391777,21.6714716 71.34101,21.38211 L71.34101,21.38211 C71.0429114,21.0932542 70.6406244,20.9372976 70.22572,20.94974 L70.22479,20.94974 Z M46.55574,30.15523 C42.3005108,30.1552618 38.2195871,31.8457207 35.2107701,34.8547065 C32.2019531,37.8636923 30.5117231,41.9447109 30.51193,46.19994 C30.5120018,55.0606602 37.6950198,62.2436737 46.55574,62.24374 C55.4164602,62.2436737 62.5994782,55.0606602 62.59955,46.19994 C62.5997569,41.9447109 60.9095269,37.8636923 57.9007099,34.8547065 C54.8918929,31.8457207 50.8109692,30.1552618 46.55574,30.15523 Z M71.35185,30.37594 C71.0583153,30.3666434 70.7682649,30.4416651 70.51605,30.59212 L63.60268,34.58385 C63.1106553,34.8497267 62.8019527,35.3619485 62.7967004,35.9211901 C62.791448,36.4804317 63.0904756,36.9983612 63.5774198,37.2734323 C64.064364,37.5485033 64.6623123,37.5372686 65.13858,37.2441 L72.05195,33.25328 C72.4143101,33.0506353 72.6792415,32.709976 72.7864168,32.3088736 C72.8935921,31.9077712 72.8338881,31.4803687 72.6209,31.12399 C72.3527793,30.6748934 71.8746159,30.3930368 71.35185,30.37594 L71.35185,30.37594 Z M21.86726,30.37686 C21.1578422,30.3506312 20.5228127,30.8138184 20.3310829,31.4973397 C20.1393532,32.1808609 20.4408446,32.9067451 21.06041,33.2533 L27.9729,37.24412 C28.4489403,37.5297217 29.04202,37.5363302 29.524306,37.2614069 C30.0065921,36.9864835 30.3030757,36.4727864 30.2998619,35.9176537 C30.2966481,35.362521 29.9942368,34.852291 29.5088,34.58297 L22.59631,30.59214 C22.3751607,30.4604488 22.1244722,30.3864234 21.86726,30.37686 L21.86726,30.37686 Z M18.91754,37.26764 C18.1496882,37.2863563 17.5136105,37.8692116 17.4280394,38.6325099 C17.3424683,39.3958081 17.8336938,40.105042 18.57834,40.29332 L26.28773,42.35929 C26.8209241,42.5106329 27.3943018,42.3630831 27.7882108,41.9731647 C28.1821198,41.5832463 28.3355001,41.0114007 28.1895941,40.4766932 C28.043688,39.9419858 27.6211126,39.5273016 27.08375,39.3915 L19.37343,37.32553 C19.2252284,37.2834854 19.0715466,37.2639671 18.91754,37.26763 L18.91754,37.26764 Z M74.14777,37.26764 C74.0095056,37.2684568 73.8719841,37.2879326 73.73893,37.32554 L66.02773,39.39151 C65.4902241,39.5271744 65.0674727,39.9418591 64.9214793,40.4766519 C64.7754859,41.0114447 64.9288898,41.5834145 65.3229049,41.9733754 C65.71692,42.3633363 66.2904457,42.5108166 66.8237,42.3593 L74.53402,40.29333 C74.936506,40.191406 75.2806121,39.9309363 75.487976,39.5712368 C75.6953399,39.2115373 75.7483087,38.7832293 75.63482,38.38385 C75.4460528,37.7200518 74.8378745,37.2635449 74.14777,37.26765 L74.14777,37.26764 Z M13.04077,44.66315 C12.4867329,44.6553564 11.9714135,44.9464675 11.6921207,45.4250209 C11.4128279,45.9035744 11.4128279,46.4954356 11.6921207,46.9739891 C11.9714135,47.4525425 12.4867329,47.7436536 13.04077,47.73586 L25.98471,47.73586 C26.5387471,47.7436536 27.0540665,47.4525425 27.3333593,46.9739891 C27.6126521,46.4954356 27.6126521,45.9035744 27.3333593,45.4250209 C27.0540665,44.9464675 26.5387471,44.6553564 25.98471,44.66315 L13.04077,44.66315 L13.04077,44.66315 Z M67.12673,44.66315 C66.5726929,44.6553564 66.0573735,44.9464675 65.7780807,45.4250209 C65.4987879,45.9035744 65.4987879,46.4954356 65.7780807,46.9739891 C66.0573735,47.4525425 66.5726929,47.7436536 67.12673,47.73586 L80.07071,47.73586 C80.486018,47.741852 80.8860603,47.5794511 81.1796713,47.2856668 C81.4732823,46.9918825 81.6354471,46.5917444 81.62921,46.17644 C81.6164811,45.3282941 80.9188631,44.6509131 80.07071,44.66315 L67.12673,44.66315 L67.12673,44.66315 Z M26.6975,49.98183 C26.558924,49.9825631 26.421084,50.0020397 26.28773,50.03973 L18.57834,52.1057 C18.0386571,52.2392523 17.6132162,52.6539232 17.4658729,53.1900051 C17.3185296,53.726087 17.4722704,54.2999472 17.8678833,54.6905677 C18.2634961,55.0811881 18.8392624,55.2276291 19.37343,55.07349 L27.08375,53.00753 C27.8362346,52.8163669 28.3278805,52.0938968 28.2295672,51.3237599 C28.131254,50.553623 27.4738764,49.9778336 26.6975,49.98184 L26.6975,49.98183 Z M66.36873,49.98183 C65.6007181,50.0001348 64.9642519,50.5828637 64.8784476,51.3462869 C64.7926433,52.10971 65.2838732,52.8191854 66.02866,53.00752 L73.738,55.07348 C74.2711941,55.2248229 74.8445718,55.0772731 75.2384808,54.6873547 C75.6323898,54.2974363 75.7857701,53.7255907 75.6398641,53.1908832 C75.493958,52.6561758 75.0713826,52.2414916 74.53402,52.10569 L66.8237,50.03972 C66.6757941,49.9977669 66.5224293,49.9782495 66.36873,49.98182 L66.36873,49.98183 Z M28.8087,54.93871 C28.5151653,54.9294134 28.2251149,55.0044351 27.9729,55.15489 L21.06041,59.14572 C20.5749732,59.415041 20.2725619,59.925271 20.2693481,60.4804037 C20.2661343,61.0355364 20.5626179,61.5492335 21.044904,61.8241569 C21.52719,62.0990802 22.1202697,62.0924717 22.59631,61.80687 L29.5088,57.81604 C30.1116841,57.4794685 30.4160151,56.782078 30.2527753,56.1111813 C30.0895355,55.4402846 29.4988211,54.9606728 28.8087,54.93871 L28.8087,54.93871 Z M64.41041,54.93871 C63.7001643,54.9112214 63.0637689,55.3744641 62.8716639,56.0587888 C62.6795588,56.7431135 62.9818928,57.4698783 63.60268,57.81604 L70.51512,61.80687 C70.9905377,62.0821639 71.5767628,62.0826866 72.0526707,61.8082409 C72.5285785,61.5337952 72.8217505,61.0261434 72.8216018,60.4767722 C72.8214531,59.927401 72.5280064,59.419908 72.05195,59.14572 L65.13946,55.15489 C64.918395,55.0228832 64.6677012,54.9485467 64.41041,54.93871 L64.41041,54.93871 Z M61.08625,59.19366 C60.4607038,59.193546 59.8975359,59.5726756 59.6622714,60.1522949 C59.4270068,60.7319143 59.5666178,61.3962983 60.01528,61.8322 L69.16827,70.98432 C69.5544544,71.3818921 70.1248287,71.540662 70.6608902,71.3998072 C71.1969517,71.2589523 71.615605,70.8403067 71.7564697,70.3042479 C71.8973344,69.768189 71.738575,69.1978118 71.34101,68.81162 L62.18797,59.65949 C61.8987276,59.3617733 61.501336,59.193748 61.08625,59.19366 L61.08625,59.19366 Z M31.97999,59.19458 C31.5807885,59.2063679 31.2018623,59.3731273 30.92351,59.65952 L21.77047,68.81164 C21.3823545,69.1999216 21.2308668,69.7657657 21.3730708,70.2960244 C21.5152748,70.8262831 21.9295663,71.2403973 22.4598858,71.3823744 C22.9902053,71.5243515 23.5559845,71.3726216 23.9441,70.98434 L33.09621,61.83222 C33.5506223,61.39054 33.6872658,60.715191 33.4402967,60.1316004 C33.1933276,59.5480097 32.6134116,59.1759008 31.97999,59.19458 L31.97999,59.19458 Z M36.29463,62.45906 C35.7329031,62.4542373 35.2133186,62.7563441 34.93963,63.24691 L30.94884,70.1594 C30.6634136,70.6354323 30.6569102,71.2283972 30.9318275,71.7105751 C31.2067448,72.1927529 31.7203411,72.4891792 32.2753771,72.4860156 C32.8304131,72.482852 33.3405971,72.1805904 33.61,71.69531 L37.60078,64.78282 C37.8828628,64.3100724 37.8904738,63.722538 37.6207316,63.242642 C37.3509894,62.7627461 36.8451191,62.4638316 36.29463,62.45906 L36.29463,62.45906 Z M56.7716,62.46106 C56.2297944,62.4818683 55.739066,62.786697 55.4803127,63.2631767 C55.2215593,63.7396565 55.2330922,64.3172393 55.51066,64.78301 L59.50241,71.6955 C59.7682446,72.1876067 60.2804925,72.4963868 60.839786,72.5016627 C61.3990794,72.5069386 61.9170612,72.2078767 62.1921319,71.7208725 C62.4672025,71.2338683 62.4559064,70.6358586 62.16264,70.15959 L58.17181,63.24711 C57.8900089,62.7426491 57.349011,62.4389437 56.7716,62.46106 L56.7716,62.46106 Z M51.91061,64.51256 C51.4229318,64.5011795 50.9588236,64.722049 50.6600862,65.1076854 C50.3613487,65.4933218 50.2634791,65.9979021 50.39638,66.46726 L52.46238,74.17755 C52.5959323,74.7172329 53.0106032,75.1426738 53.5466851,75.2900171 C54.082767,75.4373604 54.6566272,75.2836196 55.0472477,74.8880067 C55.4378681,74.4923939 55.5843091,73.9166276 55.43017,73.38246 L53.36417,65.67217 C53.1950691,65.0030512 52.6005752,64.5287804 51.91061,64.51256 L51.91061,64.51256 Z M41.30943,64.51348 C41.25818,64.5112223 41.206849,64.5115327 41.15563,64.51441 C40.4835336,64.5504288 39.9131123,65.0196776 39.74819,65.67222 L37.6822,73.38251 C37.5280346,73.9166867 37.6744654,74.4924755 38.0650926,74.8881043 C38.4557198,75.2837331 39.0295991,75.4374771 39.5656939,75.29012 C40.1017887,75.1427629 40.5164592,74.7172948 40.64999,74.17759 L42.71598,66.4673 C42.843855,66.0161075 42.7586756,65.5312187 42.4846819,65.1506215 C42.2106882,64.7700244 41.7778821,64.5353938 41.30943,64.5135 L41.30943,64.51348 Z M46.53309,65.21269 C45.6849519,65.2254407 45.0075918,65.9230645 45.01984,66.77121 L45.01984,79.71516 C45.0117917,80.2693604 45.3028444,80.7849417 45.7814995,81.0643913 C46.2601547,81.3438409 46.8522153,81.3438409 47.3308705,81.0643913 C47.8095256,80.7849417 48.1005783,80.2693604 48.09253,79.71516 L48.09253,66.77121 C48.0985276,66.355895 47.9361264,65.9558444 47.6423371,65.6622284 C47.3485478,65.3686124 46.9484014,65.2064473 46.53309,65.21269 L46.53309,65.21269 Z" id="path12382" fill="#F2C512"></path>
                <path d="M51.86539,39.23728 C32.94611,50.30942 23.78083,49.08198 13.34586,66.37595 L37.2814,91.46189 C40.31806,92.0852 43.40995,92.39995 46.50992,92.40134 C61.68731,92.40104 75.88773,84.91426 84.46304,72.39158 L51.86539,39.23728 Z" id="path12384" fill-opacity="0.21461188" fill="#000000"></path>
                <path d="M20.60441,69.75404 L60.73154,69.75404 C72.98136,67.07667 69.3437,49.73079 57.40494,51.24979 C53.54426,26.85377 27.34122,34.13283 25.59431,45.63617 C4.10325,44.27417 7.52269,69.67281 20.60441,69.75404 L20.60441,69.75404 Z" id="path12386" fill="#ECF0F3"></path>
                <path d="M51.26562,68.70788 L47.48242,82.61218 L55.39453,91.49304 C59.89992,90.60502 64.24694,89.04739 68.29102,86.87195 L51.26562,68.70788 Z" id="path12388" fill-opacity="0.21568627" fill="#000000"></path>
                <g id="g12390" transform="translate(46.572478, 68.368863)">
                    <path d="M9.33143145,11.5121934 C9.33143145,14.6175566 7.29611618,15.6123688 4.78533572,15.6123688 C2.27462225,15.6123688 0.239239988,14.6175566 0.239239988,11.5121934 C0.239239988,8.4067632 2.69756318,7.15830698 4.78533572,0.221553245 C6.70394529,6.98907701 9.33143145,8.4067632 9.33143145,11.5121934 Z" id="path12392" fill="#75C1F4"></path>
                    <path d="M3.04895319,6.42772393 C1.72284949,8.25575594 0.655414394,13.4693252 2.57033922,13.7852747 C3.88619265,13.2850883 2.19288806,12.1030914 3.04895319,6.42772393 Z" id="path12394" fill="#DAEFFC"></path>
                </g>
                <path d="M31.20508,74.4032 L28.38867,85.67077 L32.64453,90.24695 C37.12892,91.66987 41.80505,92.39641 46.50977,92.40124 C46.98787,92.39224 47.46579,92.37484 47.94336,92.35044 L31.20508,74.4032 Z" id="path12396" fill-opacity="0.21568627" fill="#000000"></path>
                <g id="g12406" transform="translate(27.423373, 74.152265)">
                    <path d="M7.45271497,9.19441957 C7.45271497,11.6745735 5.82717395,12.4690982 3.82189414,12.4690982 C1.81666783,12.4690982 0.191073304,11.6745735 0.191073304,9.19441957 C0.191073304,6.7142121 2.15445718,5.71711017 3.82189414,0.17694747 C5.35422606,5.58195162 7.45271497,6.7142121 7.45271497,9.19441957 Z" id="path12408" fill="#75C1F4"></path>
                    <path d="M2.43510111,5.13361692 C1.37598462,6.59360745 0.523458453,10.757518 2.05284749,11.0098567 C3.10377742,10.6103739 1.75138936,9.66635084 2.43510111,5.13361692 Z" id="path12410" fill="#DAEFFC"></path>
                </g>
            </g>
        </g>
    </g>
</svg>