<?xml version="1.0" encoding="UTF-8"?>
<svg width="93px" height="93px" viewBox="0 0 93 93" version="1.1" xmlns="http://www.w3.org/2000/svg" xmlns:xlink="http://www.w3.org/1999/xlink">
    <!-- Generator: Sketch 53.2 (72643) - https://sketchapp.com -->
    <title>g11455</title>
    <desc>Created with Sketch.</desc>
    <g id="Page-1" stroke="none" stroke-width="1" fill="none" fill-rule="evenodd">
        <g id="g14289" transform="translate(-472.000000, -118.999973)" fill-rule="nonzero">
            <g id="g11455" transform="translate(471.681760, 119.230470)">
                <path d="M46.9848,0.00041 C21.5797031,0.00041 0.984802209,20.5953091 0.9848,46.000406 C0.9848,71.4055045 21.5797015,92.000406 46.9848,92.000406 C72.3898985,92.000406 92.9848,71.4055045 92.9848,46.000406 C92.9847978,20.5953091 72.3898969,0.00041 46.9848,0.00041 Z" id="path11371" fill="#3598DB"></path>
                <path d="M47.74652,11.0551 L45.43011,22.20159 L40.65863,17.19182 L40.32269,26.99651 L33.8012,20.1801 L35.59027,28.99065 L38.4262,32.12151 L36.518,33.46135 L33.6137,30.31096 L22.49066,23.53362 L34.52581,35.902756 L33.28363,37.580486 L30.24261,34.59416 L20.90081,32.32854 L27.56683,39.301196 L18.12542,39.311196 L24.41253,45.797526 L12.32855,46.932286 L18.56097,53.219396 L18.19964,54.223306 L23.40472,59.504556 L20.97113,60.983076 L26.01214,66.158856 L21.86761,70.395176 L42.56097,91.779946 C44.0311806,91.9245061 45.5075016,91.9981582 46.9848,92.000646 C72.3898985,92.000646 92.9848,71.4057445 92.9848,46.000646 C92.9822191,44.8606994 92.9372648,43.7212428 92.85003,42.584636 L71.80511,21.06706 L66.268,24.04167 L62.18402,19.80144 L59.59222,21.74675 L55.21722,17.01042 L47.74652,11.05534 L47.74652,11.0551 Z" id="path11373" fill-opacity="0.21461188" fill="#000000"></path>
                <path d="M47.00797,10.72529 C46.1601883,10.7380423 45.4829735,11.4351138 45.49472,12.28291 L45.49472,25.22685 C45.4866717,25.7810504 45.7777244,26.2966317 46.2563795,26.5760813 C46.7350347,26.8555309 47.3270953,26.8555309 47.8057505,26.5760813 C48.2844056,26.2966317 48.5754583,25.7810504 48.56741,25.22685 L48.56741,12.28291 C48.5731621,11.86775 48.4106524,11.4679341 48.1168904,11.1745149 C47.8231284,10.8810958 47.423123,10.7190531 47.00797,10.72529 L47.00797,10.72529 Z M39.67038,16.66087 C39.1828615,16.6497896 38.7190272,16.8707869 38.4205073,17.2563812 C38.1219874,17.6419755 38.0242281,18.1463812 38.15708,18.61558 L40.22307,26.32587 C40.3566223,26.8655529 40.7712932,27.2909938 41.3073751,27.4383371 C41.843457,27.5856804 42.4173172,27.4319396 42.8079377,27.0363267 C43.1985581,26.6407139 43.3449991,26.0649476 43.19086,25.53078 L41.12487,17.82049 C40.9556801,17.151041 40.3606968,16.6766792 39.67038,16.66087 L39.67038,16.66087 Z M54.34469,16.66287 C53.6725974,16.6988931 53.1021812,17.168141 52.93726,17.82068 L50.87038,25.53097 C50.7283508,26.0612719 50.880023,26.6270627 51.2682633,27.0152145 C51.6565036,27.4033663 52.222329,27.5549096 52.7525984,27.4127595 C53.2828679,27.2706094 53.6970209,26.8563619 53.83905,26.32606 L55.90505,18.61577 C56.0181774,18.2161354 55.9646989,17.7877254 55.7568009,17.4281644 C55.548903,17.0686035 55.2042968,16.8085233 54.80151,16.70719 C54.6523133,16.6696359 54.4983224,16.6547027 54.34469,16.66289 L54.34469,16.66287 Z M61.33137,19.51579 C60.7701637,19.5111216 60.251058,19.8128061 59.97729,20.30273 L55.98554,27.21522 C55.709794,27.6906666 55.7090041,28.2771917 55.9834686,28.7533793 C56.257933,29.2295669 56.7658465,29.5228862 57.3154694,29.5226077 C57.8650922,29.5223292 58.3727082,29.2284955 58.64669,28.75203 L62.63752,21.83864 C62.8499927,21.4820038 62.9091158,21.0545689 62.801429,20.653648 C62.6937422,20.2527272 62.4284101,19.9124405 62.06584,19.71026 C61.8411568,19.5849736 61.5886128,19.518106 61.33137,19.51579 L61.33137,19.51579 Z M32.68374,19.51671 C32.1420999,19.5378296 31.651662,19.842781 31.3931276,20.3192052 C31.1345932,20.7956294 31.1462184,21.3730282 31.42372,21.83866 L35.41451,28.75115 C35.683862,29.2365292 36.1940759,29.5388848 36.7491735,29.542079 C37.304271,29.5452732 37.8179307,29.2488092 38.0928507,28.7665619 C38.3677707,28.2843146 38.361199,27.6912767 38.07566,27.21524 L34.08488,20.30276 C33.8029252,19.7979929 33.2614799,19.494238 32.68374,19.51671 L32.68374,19.51671 Z M23.31632,20.54789 C22.6907783,20.5477802 22.1276161,20.9269082 21.8923524,21.5065231 C21.6570888,22.0861379 21.7966951,22.7505173 22.24535,23.18642 L31.39839,32.33855 C31.7845124,32.7364214 32.3550364,32.8954177 32.891284,32.7545967 C33.4275317,32.6137758 33.8463251,32.1949804 33.9871436,31.6587321 C34.1279621,31.1224838 33.9689631,30.5519605 33.57109,30.16584 L24.41898,21.01372 C24.1295103,20.7157693 23.7317322,20.5477239 23.31632,20.54789 L23.31632,20.54789 Z M70.69967,20.54881 C70.3004559,20.560585 69.9215138,20.7273415 69.64315,21.01374 L60.49016,30.16677 C60.0920895,30.5528471 59.9329392,31.1234664 60.0737316,31.6598368 C60.2145241,32.1962071 60.6334116,32.6150966 61.1697813,32.7558915 C61.706151,32.8966864 62.2767711,32.7375387 62.66285,32.33947 L71.81589,23.18645 C72.1140577,22.8970884 72.282327,22.4993076 72.282327,22.083815 C72.282327,21.6683224 72.1140577,21.2705416 71.81589,20.98118 L71.81589,20.98118 C71.5177914,20.6923242 71.1155044,20.5363676 70.7006,20.54881 L70.69967,20.54881 Z M47.03062,29.7543 C42.7753915,29.7543318 38.6944684,31.4447902 35.6856515,34.4537751 C32.6768346,37.46276 30.9866042,41.5437775 30.98681,45.799006 C30.9868835,54.6597251 38.1699009,61.8427367 47.03062,61.842803 C55.8913391,61.8427367 63.0743565,54.6597251 63.07443,45.799006 C63.0746358,41.5437775 61.3844054,37.46276 58.3755885,34.4537751 C55.3667716,31.4447902 51.2858485,29.7543318 47.03062,29.7543 L47.03062,29.7543 Z M71.82673,29.97501 C71.5331953,29.9657134 71.2431449,30.0407351 70.99093,30.19119 L64.07756,34.18292 C63.5855119,34.4487843 63.2767869,34.9610132 63.2715274,35.5202693 C63.2662678,36.0795255 63.5653045,36.5974701 64.0522653,36.8725416 C64.5392261,37.147613 65.1371917,37.1363617 65.61346,36.843166 L72.52683,32.85235 C72.8891901,32.6497053 73.1541215,32.309046 73.2612968,31.9079436 C73.3684721,31.5068412 73.3087681,31.0794387 73.09578,30.72306 C72.8276593,30.2739634 72.3494959,29.9921068 71.82673,29.97501 L71.82673,29.97501 Z M22.34214,29.97593 C21.6327222,29.9497012 20.9976927,30.4128884 20.8059629,31.0964097 C20.6142332,31.7799309 20.9157246,32.5058151 21.53529,32.85237 L28.44778,36.843186 C28.923822,37.1288322 29.5169306,37.1354677 29.999244,36.8605433 C30.4815575,36.5856189 30.778056,36.0718967 30.7748301,35.5167397 C30.7716043,34.9615827 30.4691558,34.4513409 29.98368,34.18204 L23.07119,30.19121 C22.8500407,30.0595188 22.5993522,29.9854934 22.34214,29.97593 L22.34214,29.97593 Z M19.39242,36.866706 C18.6245682,36.8854223 17.9884905,37.4682776 17.9029194,38.2315759 C17.8173483,38.9948741 18.3085738,39.704108 19.05322,39.892386 L26.76261,41.958356 C27.2958041,42.1096989 27.8691818,41.9621491 28.2630908,41.5722307 C28.6569998,41.1823123 28.8103801,40.6104667 28.6644741,40.0757592 C28.518568,39.5410518 28.0959926,39.1263676 27.55863,38.990566 L19.84831,36.924596 C19.7001084,36.8825514 19.5464266,36.8630331 19.39242,36.866696 L19.39242,36.866706 Z M74.62265,36.866706 C74.4843856,36.8675228 74.3468641,36.8869986 74.21381,36.924606 L66.50261,38.990576 C65.9651041,39.1262404 65.5423527,39.5409251 65.3963593,40.0757179 C65.2503659,40.6105107 65.4037698,41.1824805 65.7977849,41.5724414 C66.1918,41.9624023 66.7653257,42.1098826 67.29858,41.958366 L75.0089,39.892396 C75.411386,39.790472 75.7554921,39.5300023 75.962856,39.1703028 C76.1702199,38.8106033 76.2231887,38.3822953 76.1097,37.982916 C75.9209328,37.3191178 75.3127545,36.8626109 74.62265,36.866716 L74.62265,36.866706 Z M13.51565,44.262216 C12.9616129,44.2544224 12.4462935,44.5455335 12.1670007,45.0240869 C11.8877079,45.5026404 11.8877079,46.0945016 12.1670007,46.5730551 C12.4462935,47.0516085 12.9616129,47.3427196 13.51565,47.334926 L26.45959,47.334926 C27.0136271,47.3427196 27.5289465,47.0516085 27.8082393,46.5730551 C28.0875321,46.0945016 28.0875321,45.5026404 27.8082393,45.0240869 C27.5289465,44.5455335 27.0136271,44.2544224 26.45959,44.262216 L13.51565,44.262216 Z M67.60161,44.262216 C67.0475729,44.2544224 66.5322535,44.5455335 66.2529607,45.0240869 C65.9736679,45.5026404 65.9736679,46.0945016 66.2529607,46.5730551 C66.5322535,47.0516085 67.0475729,47.3427196 67.60161,47.334926 L80.54559,47.334926 C80.960898,47.340918 81.3609403,47.1785171 81.6545513,46.8847328 C81.9481623,46.5909485 82.1103271,46.1908104 82.10409,45.775506 C82.0913611,44.9273601 81.3937431,44.2499791 80.54559,44.262216 L67.60161,44.262216 L67.60161,44.262216 Z M27.17238,49.5809 C27.0338044,49.5816298 26.8959645,49.6011031 26.76261,49.63879 L19.05322,51.704755 C18.5135773,51.8383442 18.0881847,52.253013 17.9408639,52.7890698 C17.793543,53.3251267 17.9472743,53.8989522 18.3428548,54.2895625 C18.7384353,54.6801728 19.3141586,54.8266367 19.84831,54.67255 L27.55863,52.606582 C28.3110984,52.4154057 28.802727,51.6929441 28.704415,50.9228195 C28.6061031,50.152695 27.948744,49.5769099 27.17238,49.5809 L27.17238,49.5809 Z M66.84361,49.5809 C66.0756097,49.599219 65.4391599,50.1819437 65.3533566,50.9453557 C65.2675533,51.7087677 65.7587677,52.4182357 66.50354,52.606582 L74.21288,54.67255 C74.7460523,54.8238238 75.3193732,54.6762441 75.7132396,54.2863393 C76.107106,53.8964345 76.2604737,53.3246348 76.1145973,52.7899605 C75.9687209,52.2552863 75.5462093,51.840605 75.0089,51.704755 L67.29858,49.63879 C67.1506736,49.5968402 66.9973088,49.5773262 66.84361,49.5809 L66.84361,49.5809 Z M29.28358,54.537772 C28.9900447,54.5284772 28.6999943,54.603501 28.44778,54.753958 L21.53529,58.744783 C21.049863,59.014109 20.7474609,59.5243361 20.7442502,60.0794627 C20.7410394,60.6345893 21.0375193,61.1482802 21.5197985,61.4232033 C22.0020776,61.6981263 22.5951502,61.6915246 23.07119,61.405934 L29.98368,57.415109 C30.5865712,57.0785406 30.8909079,56.3811459 30.7276674,55.7102445 C30.5644268,55.0393432 29.973706,54.5597296 29.28358,54.537772 L29.28358,54.537772 Z M64.88529,54.537772 C64.1750391,54.510277 63.5386362,54.9735212 63.3465301,55.6578512 C63.1544241,56.3421813 63.4567646,57.0689509 64.07756,57.415109 L70.99,61.405934 C71.4654063,61.6810467 72.0515115,61.6814618 72.527307,61.4070227 C73.0031025,61.1325836 73.2962144,60.6250356 73.2961159,60.075765 C73.2960175,59.5264945 73.0027238,59.0190516 72.52683,58.744783 L65.61434,54.753958 C65.3932756,54.6219491 65.1425817,54.5476106 64.88529,54.537772 L64.88529,54.537772 Z M61.56113,58.792721 C60.9355834,58.7926066 60.3724149,59.1717363 60.1371503,59.7513561 C59.9018856,60.3309759 60.0414971,60.9953604 60.49016,61.431262 L69.64315,70.583384 C70.0293415,70.9809249 70.5997008,71.1396708 71.1357431,70.9988115 C71.6717854,70.8579522 72.0904236,70.439321 72.2312921,69.9032812 C72.3721605,69.3672413 72.2134244,68.7968793 71.81589,68.410681 L62.66285,59.258559 C62.3736089,58.9608394 61.9762172,58.7928111 61.56113,58.792721 L61.56113,58.792721 Z M32.45487,58.793648 C32.0556693,58.8054343 31.6767433,58.9721915 31.39839,59.258582 L22.24535,68.410704 C21.8571603,68.7989707 21.7056164,69.3648516 21.847811,69.8951562 C21.9900057,70.4254609 22.4043327,70.8396104 22.9346982,70.9815779 C23.4650637,71.1235453 24.0308796,70.971759 24.41898,70.583403 L33.57109,61.431281 C34.025497,60.9896002 34.1621371,60.3142547 33.9151687,59.7306672 C33.6682003,59.1470798 33.0882884,58.774972 32.45487,58.793648 L32.45487,58.793648 Z M36.76951,62.058128 C36.2077827,62.0533057 35.6881981,62.3554133 35.41451,62.84598 L31.42372,69.758464 C31.1382809,70.234497 31.1317701,70.8274704 31.406688,71.3096561 C31.681606,71.7918418 32.1952099,72.0882721 32.750253,72.0851045 C33.3052962,72.0819369 33.8154833,71.779664 34.08488,71.294372 L38.07566,64.381889 C38.3577433,63.9091414 38.3653546,63.3216066 38.0956123,62.8417103 C37.8258701,62.361814 37.3199994,62.0628994 36.76951,62.058128 L36.76951,62.058128 Z M57.24648,62.060028 C56.7046747,62.0808365 56.2139467,62.385665 55.9551934,62.8621444 C55.6964401,63.3386239 55.7079727,63.9162063 55.98554,64.381977 L59.97729,71.294461 C60.2431128,71.7865884 60.7553661,72.095389 61.3146721,72.1006724 C61.8739781,72.1059558 62.3919735,71.8068872 62.6670457,71.3198693 C62.9421178,70.8328513 62.9308087,70.2348268 62.63752,69.758557 L58.64669,62.846074 C58.3648879,62.3416147 57.8238902,62.0379109 57.24648,62.060028 L57.24648,62.060028 Z M52.38549,64.111522 C51.8978102,64.1001408 51.4337004,64.3210112 51.1349625,64.7066494 C50.8362247,65.0922876 50.7383564,65.5968701 50.87126,66.066229 L52.93726,73.776512 C53.0708037,74.3162037 53.4854744,74.7416554 54.0215615,74.8890043 C54.5576485,75.0363531 55.1315164,74.882611 55.5221396,74.4869918 C55.9127627,74.0913726 56.0591996,73.5155972 55.90505,72.981426 L53.83905,65.271138 C53.6699514,64.6020168 53.0754569,64.1277431 52.38549,64.111522 L52.38549,64.111522 Z M41.78431,64.112449 C41.73306,64.11019 41.6817291,64.110499 41.63051,64.113375 C40.9584139,64.1493937 40.3879926,64.618642 40.22307,65.271184 L38.15708,72.981472 C38.0029304,73.5156432 38.1493673,74.0914186 38.5399904,74.4870378 C38.9306136,74.882657 39.5044815,75.0363991 40.0405685,74.8890503 C40.5766556,74.7417014 40.9913263,74.3162497 41.12487,73.776558 L43.19086,66.06627 C43.3187361,65.6150771 43.2335573,65.1301874 42.9595634,64.7495895 C42.6855696,64.3689916 42.2527628,64.1343606 41.78431,64.112467 L41.78431,64.112449 Z M47.00797,64.811654 C46.1598307,64.8244047 45.4824701,65.5220304 45.49472,66.370177 L45.49472,79.314124 C45.4866717,79.8683244 45.7777244,80.3839057 46.2563795,80.6633553 C46.7350347,80.9428049 47.3270953,80.9428049 47.8057505,80.6633553 C48.2844056,80.3839057 48.5754583,79.8683244 48.56741,79.314124 L48.56741,66.370177 C48.5734084,65.9548615 48.4110076,65.5548101 48.1172182,65.2611934 C47.8234288,64.9675768 47.4232819,64.8054113 47.00797,64.811654 L47.00797,64.811654 Z" id="path11375" fill="#F2C512"></path>
                <path d="M52.34027,38.836346 C33.42099,49.908486 24.25571,48.681046 13.82074,65.975016 L37.75628,91.060956 C40.79294,91.684266 43.88483,91.999016 46.9848,92.000406 C62.16219,92.000106 76.36261,84.513326 84.93792,71.990646 L52.34027,38.836346 Z" id="path11377" fill-opacity="0.21461188" fill="#000000"></path>
                <path d="M21.07929,69.353105 L61.20642,69.353105 C73.45624,66.67574 69.81858,49.329857 57.87982,50.848856 C54.01914,26.45284 27.8161,33.7319 26.06919,45.235236 C4.57813,43.873236 7.99757,69.271873 21.07929,69.353105 Z" id="path11379" fill="#ECF0F3"></path>
                <path d="M60.22461,69.96179 L59.20117,72.87585 L59.11717,74.59265 L56.13084,71.54187 L56.14084,74.9032 L53.2678,74.25085 L54.6721,75.72937 L52.52366,76.74304 L53.70139,78.01452 L52.57444,78.22156 L54.27952,79.92663 L53.16428,80.9403 L61.49045,89.59265 C66.3660178,87.9794911 70.9370388,85.5612857 75.01389,82.43835 L66.14866,73.32116 L65.52756,73.10437 L63.94163,71.48913 L63.49045,71.40903 L62.84006,70.76645 L61.61936,71.37777 L60.22483,69.96176 L60.22461,69.96179 Z" id="path11201" fill-opacity="0.21568627" fill="#000000"></path>
                <path d="M59.72786,69.745869 C59.3445478,69.7518524 59.0385222,70.0671835 59.04402,70.450503 L59.04402,72.577977 L57.35615,70.890109 C57.240001,70.769076 57.0674876,70.7203039 56.9051609,70.7626078 C56.7428342,70.8049117 56.616068,70.9316789 56.5737654,71.0940059 C56.5314627,71.2563329 56.5802361,71.4288459 56.70127,71.544994 L59.04402,73.887752 L59.04402,76.059547 L57.0866,74.928872 L56.23,71.729521 C56.1788181,71.5277973 55.9993745,71.3849798 55.79131,71.380372 C55.6444891,71.3771604 55.5048445,71.4437671 55.4149426,71.5598892 C55.3250408,71.6760113 55.2955353,71.8278879 55.33542,71.969224 L55.95231,74.273988 L54.18665,73.254573 C54.0865367,73.1948232 53.9729968,73.1612282 53.85649,73.156883 C53.5350348,73.1442529 53.2469527,73.353961 53.1601981,73.6637458 C53.0734434,73.9735305 53.2107099,74.3023568 53.49197,74.458516 L55.18436,75.435415 L52.79818,76.074924 C52.6353147,76.1150207 52.5068529,76.2400347 52.4623413,76.4017491 C52.4178297,76.5634635 52.4642244,76.7366065 52.5836312,76.8543981 C52.703038,76.9721896 52.8767968,77.0162219 53.03789,76.969512 L56.31865,76.090304 L58.27878,77.221882 L56.29965,78.364311 L53.1003,77.50681 C53.0555907,77.4942218 53.0092422,77.4884304 52.96281,77.48963 C52.7317757,77.495809 52.5406529,77.671358 52.5149059,77.9010363 C52.489159,78.1307146 52.6366683,78.3442243 52.8606,78.401405 L55.16536,79.019207 L53.3988,80.038622 C53.178183,80.1598454 53.0403957,80.390922 53.0386316,80.6426438 C53.0368675,80.8943656 53.1714026,81.1273507 53.3902989,81.2516543 C53.6091953,81.3759578 53.8782066,81.3721324 54.09348,81.241655 L55.78678,80.263853 L55.14727,82.651834 C55.1005528,82.8129306 55.1445831,82.9866965 55.2623779,83.1061076 C55.3801727,83.2255187 55.5533224,83.271913 55.7150408,83.2273954 C55.8767591,83.1828778 56.0017719,83.0544059 56.04186,82.891533 L56.92107,79.608963 L59.04402,78.383315 L59.04402,80.829188 L56.70127,83.171038 C56.5802361,83.2871861 56.5314627,83.4596991 56.5737654,83.6220261 C56.616068,83.7843531 56.7428342,83.9111203 56.9051609,83.9534242 C57.0674876,83.9957281 57.240001,83.946956 57.35615,83.825923 L59.04402,82.138957 L59.04402,84.17779 C59.0404609,84.4283288 59.1720832,84.6613744 59.3884825,84.7876825 C59.6048817,84.9139905 59.8725283,84.9139905 60.0889275,84.7876825 C60.3053268,84.6613744 60.4369491,84.4283288 60.43339,84.17779 L60.43339,82.223987 L62.18006,83.970649 C62.2970439,84.0877946 62.467638,84.1336315 62.6275811,84.0908932 C62.7875241,84.048155 62.912517,83.9233346 62.9554761,83.7634507 C62.9984352,83.6035668 62.952834,83.4329096 62.83585,83.315764 L60.43339,80.914213 L60.43339,78.465626 L62.47675,79.64605 L63.35686,82.927717 C63.3969562,83.0905816 63.5219692,83.2190433 63.6836827,83.2635557 C63.8453962,83.308068 64.0185387,83.2616749 64.136331,83.1422698 C64.2541232,83.0228646 64.2981574,82.8491072 64.25145,82.688014 L63.61194,80.300935 L65.38031,81.32216 C65.5955803,81.4525785 65.8645525,81.456369 66.0834125,81.3320686 C66.3022725,81.2077681 66.4367891,80.9748181 66.4350435,80.7231293 C66.4332979,80.4714405 66.2955631,80.2403788 66.075,80.119126 L64.23246,79.055387 L66.53812,78.437589 C66.7643983,78.3794665 66.911968,78.1619233 66.882313,77.9301893 C66.8526579,77.6984553 66.6550627,77.5250829 66.42144,77.525814 C66.3798513,77.525992 66.3384761,77.5317706 66.29843,77.542994 L63.09817,78.400495 L61.05662,77.221882 L63.07917,76.05412 L66.36084,76.933333 C66.5219418,76.9800674 66.6957216,76.9360446 66.8151433,76.8182467 C66.934565,76.7004488 66.9809625,76.5272879 66.9364379,76.3655614 C66.8919132,76.2038349 66.7634258,76.0788213 66.60054,76.038745 L64.21346,75.399236 L65.98274,74.378011 C66.2550394,74.225691 66.3923989,73.9105271 66.3186121,73.6073707 C66.2448253,73.3042142 65.977992,73.0874288 65.66615,73.077286 C65.5333722,73.0730318 65.4021583,73.1069346 65.28806,73.174976 L63.44551,74.238711 L64.06331,71.933041 C64.1018253,71.7970083 64.0761011,71.6508336 63.9934592,71.5361224 C63.9108174,71.4214113 63.7803088,71.3507269 63.63908,71.344188 C63.419258,71.3340596 63.2226566,71.4799992 63.16872,71.693342 L62.31122,74.893596 L60.43339,75.978139 L60.43339,73.802722 L62.83585,71.400268 C62.9729609,71.267012 63.0140995,71.0632007 62.9394121,70.887194 C62.8647248,70.7111872 62.689563,70.5991616 62.49846,70.605181 C62.3781405,70.6087651 62.2639426,70.6590502 62.18006,70.745383 L60.43339,72.492953 L60.43339,70.450503 C60.4360843,70.2626534 60.3625879,70.0817203 60.2296602,69.9489613 C60.0967324,69.8162024 59.915706,69.742936 59.72786,69.745869 L59.72786,69.745869 Z" id="path11207" fill="#ECF0F3"></path>
                <path d="M24.89258,69.7528 L23.86914,72.66687 L23.78714,74.38366 L20.80081,71.33288 L20.81081,74.69421 L17.93581,74.04187 L19.34206,75.52038 L17.19167,76.53406 L18.37135,77.80554 L17.2444,78.01257 L18.94948,79.71765 L17.83229,80.73132 L20.98073,83.94226 C28.63707,89.1906417 37.7021268,91.9998952 46.98464,92.00085 C47.7540848,91.9928137 48.5232069,91.9654717 49.29128,91.91885 L30.81667,73.11221 L30.19753,72.89541 L28.61159,71.28018 L28.16042,71.20008 L27.51003,70.5575 L26.28932,71.16883 L24.89284,69.75281 L24.89258,69.7528 Z" id="path11354" fill-opacity="0.21568627" fill="#000000"></path>
                <path d="M24.39712,69.536919 C24.0138117,69.5429079 23.7077922,69.8582373 23.71329,70.241553 L23.71329,72.369027 L22.02542,70.681159 C21.909271,70.560126 21.7367576,70.5113539 21.5744309,70.5536578 C21.4121042,70.5959617 21.285338,70.7227289 21.2430354,70.8850559 C21.2007327,71.0473829 21.2495061,71.2198959 21.37054,71.336044 L23.71329,73.678802 L23.71329,75.850597 L21.75677,74.72083 L20.89927,71.520571 C20.8480871,71.3188438 20.6686382,71.1760254 20.46057,71.171422 C20.3137491,71.1682104 20.1741045,71.2348171 20.0842026,71.3509392 C19.9943008,71.4670613 19.9647953,71.6189379 20.00468,71.760274 L20.62158,74.065038 L18.85592,73.045623 C18.7560747,72.9860191 18.6428659,72.9524295 18.52667,72.947933 C18.2050328,72.9348357 17.9165214,73.1443968 17.8295095,73.4543178 C17.7424977,73.7642387 17.8797761,74.0933425 18.16123,74.249566 L19.85362,75.226465 L17.46745,75.865974 C17.3045642,75.9060503 17.1760768,76.0310639 17.1315521,76.1927904 C17.0870275,76.3545169 17.133425,76.5276778 17.2528467,76.6454757 C17.3722684,76.7632736 17.5460482,76.8072964 17.70715,76.760562 L20.98792,75.881354 L22.94805,77.012932 L20.96892,78.155361 L17.76957,77.29786 C17.7248607,77.2852718 17.6785122,77.2794804 17.63208,77.28068 C17.401044,77.2868545 17.209917,77.462402 17.1841674,77.6920816 C17.1584178,77.9217612 17.3059269,78.1352735 17.52986,78.192455 L19.83463,78.810257 L18.06897,79.829672 C17.848353,79.9508954 17.7105657,80.181972 17.7088016,80.4336938 C17.7070375,80.6854156 17.8415726,80.9184007 18.0604689,81.0427043 C18.2793653,81.1670078 18.5483766,81.1631824 18.76365,81.032705 L20.45605,80.055806 L19.81654,82.442884 C19.7698228,82.6039806 19.8138531,82.7777465 19.9316479,82.8971576 C20.0494427,83.0165687 20.2225924,83.062963 20.3843108,83.0184454 C20.5460291,82.9739278 20.6710419,82.8454559 20.71113,82.682583 L21.59034,79.400921 L23.71329,78.175268 L23.71329,80.620238 L21.37054,82.962088 C21.2495061,83.0782361 21.2007327,83.2507491 21.2430354,83.4130761 C21.285338,83.5754031 21.4121042,83.7021703 21.5744309,83.7444742 C21.7367576,83.7867781 21.909271,83.738006 22.02542,83.616973 L23.71329,81.930007 L23.71329,83.96884 C23.7097309,84.2193788 23.8413532,84.4524244 24.0577525,84.5787325 C24.2741517,84.7050405 24.5417983,84.7050405 24.7581975,84.5787325 C24.9745968,84.4524244 25.1062191,84.2193788 25.10266,83.96884 L25.10266,82.015037 L26.85023,83.761699 C26.9663947,83.8826596 27.1388722,83.9313765 27.301154,83.889064 C27.4634357,83.8467516 27.5901679,83.7200204 27.6324816,83.557739 C27.6747953,83.3954575 27.6260797,83.2229796 27.50512,83.106814 L25.10266,80.705263 L25.10266,78.257584 L27.14692,79.438003 L28.02613,82.718767 C28.0662262,82.8816316 28.1912392,83.0100933 28.3529527,83.0546057 C28.5146662,83.099118 28.6878087,83.0527249 28.805601,82.9333198 C28.9233932,82.8139146 28.9674274,82.6401572 28.92072,82.479064 L28.28121,80.092893 L30.04958,81.11321 C30.2648503,81.2436285 30.5338225,81.247419 30.7526825,81.1231186 C30.9715425,80.9988181 31.1060591,80.7658681 31.1043135,80.5141793 C31.1025679,80.2624905 30.9648331,80.0314288 30.74427,79.910176 L28.90263,78.846437 L31.20739,78.228639 C31.4336683,78.1705165 31.581238,77.9529733 31.551583,77.7212393 C31.5219279,77.4895053 31.3243327,77.3161329 31.09071,77.316864 C31.049118,77.3170411 31.0077393,77.3228197 30.96769,77.334044 L27.76834,78.191545 L25.72679,77.012932 L27.74844,75.84517 L31.0301,76.724383 C31.1911932,76.7710929 31.364952,76.7270606 31.4843588,76.6092691 C31.6037656,76.4914775 31.6501603,76.3183345 31.6056487,76.1566201 C31.5611371,75.9949057 31.4326753,75.8698917 31.26981,75.829795 L28.88273,75.190286 L30.65201,74.169061 C30.9243094,74.016741 31.0616689,73.7015771 30.9878821,73.3984207 C30.9140953,73.0952642 30.647262,72.8784788 30.33542,72.868336 C30.2026388,72.8640799 30.0714211,72.8979827 29.95732,72.966026 L28.11477,74.029761 L28.73257,71.724091 C28.771085,71.5880599 28.745362,71.4418869 28.6627224,71.3271762 C28.5800828,71.2124654 28.449577,71.1417798 28.30835,71.135238 C28.088528,71.1251096 27.8919266,71.2710492 27.83799,71.484392 L26.98048,74.684646 L25.10266,75.769189 L25.10266,73.593772 L27.50512,71.191318 C27.6422325,71.0580607 27.6833705,70.8542469 27.6086805,70.6782391 C27.5339906,70.5022313 27.3588248,70.3902073 27.16772,70.396231 C27.0477186,70.400049 26.9338885,70.4503158 26.85023,70.536433 L25.10266,72.284003 L25.10266,70.241553 C25.1053543,70.0537017 25.0318566,69.8727669 24.8989267,69.7400077 C24.7659967,69.6072485 24.5849677,69.5339833 24.39712,69.536919 L24.39712,69.536919 Z" id="path11360" fill="#ECF0F3"></path>
                <path d="M43.85547,76.30945 L43.07812,78.52234 L43.01562,79.82702 L40.74609,77.51062 L40.75409,80.0614 L38.57049,79.56726 L39.63885,80.6903 L38.00604,81.45984 L38.90057,82.42468 L38.0451,82.58288 L39.34002,83.8778 L38.49237,84.64734 L45.81073,91.94226 C46.2017412,91.9667913 46.5930498,91.9863262 46.98456,92.00086 C51.2709578,91.9951371 55.5355193,91.3903296 59.65448,90.20399 L48.35565,78.86024 L47.88299,78.69617 L46.67987,77.46961 L46.33612,77.40711 L45.84198,76.92078 L44.9162,77.38367 L43.85565,76.30946 L43.85547,76.30945 Z" id="path11231" fill-opacity="0.21568627" fill="#000000"></path>
                <path d="M43.47784,76.144967 C43.1866707,76.1496404 42.9543183,76.3892833 42.95864,76.680458 L42.95864,78.295964 L41.67691,77.014232 C41.5884632,76.9232937 41.4579089,76.8870127 41.3352239,76.9192777 C41.212539,76.9515427 41.1167244,77.0473565 41.0844584,77.1700412 C41.0521925,77.2927258 41.0884724,77.4232805 41.17941,77.511728 L42.95864,79.290953 L42.95864,80.940831 L41.47248,80.082426 L40.82121,77.65193 C40.782299,77.4988993 40.6461983,77.3905377 40.48834,77.386903 C40.3766838,77.3843706 40.2704576,77.4350037 40.2021118,77.5233347 C40.1337659,77.6116657 40.1114199,77.7272007 40.1419,77.834646 L40.61136,79.585833 L39.26902,78.810642 C39.1930384,78.7653049 39.1068771,78.7397997 39.01846,78.736472 C38.7750059,78.7278016 38.5572531,78.886901 38.491523,79.1214743 C38.425793,79.3560476 38.5291685,79.6051307 38.74168,79.724227 L40.02793,80.466855 L38.21433,80.952589 C38.0890479,80.9815361 37.9895368,81.0765244 37.9547977,81.2003256 C37.9200586,81.3241269 37.9556257,81.4570186 38.0475592,81.5469173 C38.1394928,81.6368159 38.2731472,81.6694 38.39614,81.631899 L40.88996,80.964352 L42.37792,81.82366 L40.87458,82.692017 L38.44408,82.040749 C38.4099906,82.0309631 38.3746174,82.0263881 38.33916,82.027179 C38.1632098,82.0312677 38.017351,82.1647461 37.9977123,82.3396447 C37.9780737,82.5145433 38.0906982,82.6770457 38.26136,82.720054 L40.01254,83.189509 L38.67111,83.963796 C38.50102,84.0545049 38.3939208,84.2307374 38.3917463,84.4234912 C38.3895718,84.6162449 38.492668,84.7948487 38.6606683,84.8893717 C38.8286687,84.9838947 39.034841,84.9792963 39.19846,84.877377 L40.48471,84.134754 L39.99897,85.948351 C39.9614732,86.0713423 39.9940588,86.204993 40.0839562,86.296924 C40.1738536,86.3888551 40.306742,86.4244218 40.4305412,86.3896853 C40.5543404,86.3549487 40.649329,86.2554425 40.67828,86.130164 L41.34583,83.637257 L42.95863,82.706485 L42.95863,84.564407 L41.1794,86.342733 C41.0884731,86.4311828 41.0522013,86.5617321 41.0844686,86.6844101 C41.1167358,86.8070882 41.2125452,86.902897 41.3352234,86.9351635 C41.4579016,86.96743 41.5884508,86.9311575 41.6769,86.84023 L42.95863,85.559401 L42.95863,87.107971 C42.959362,87.3989458 43.1954493,87.63444 43.486425,87.63444 C43.7774007,87.63444 44.013488,87.3989458 44.01422,87.107971 L44.01422,85.623622 L45.34118,86.950583 C45.4296292,87.0415105 45.5601784,87.077783 45.6828566,87.0455165 C45.8055348,87.01325 45.9013442,86.9174412 45.9336114,86.7947631 C45.9658787,86.6720851 45.9296069,86.5415358 45.83868,86.453086 L44.01422,84.628629 L44.01422,82.767997 L45.56732,83.664391 L46.23487,86.158206 C46.2651376,86.2822185 46.3602043,86.3801065 46.4832788,86.413987 C46.6063534,86.4478675 46.7381241,86.4124242 46.8275951,86.3213739 C46.9170661,86.2303235 46.9501986,86.0979529 46.91417,85.97549 L46.42843,84.161888 L47.77167,84.937982 C47.935289,85.0399013 48.1414613,85.0444997 48.3094617,84.9499767 C48.477462,84.8554537 48.5805582,84.6768499 48.5783837,84.4840962 C48.5762092,84.2913424 48.46911,84.1151099 48.29902,84.024401 L46.8997,83.216648 L48.65089,82.747189 C48.8233913,82.703532 48.9361378,82.5379494 48.9135428,82.3614498 C48.8909478,82.1849502 48.7401259,82.0531089 48.56219,82.054314 C48.5306556,82.0546398 48.4993081,82.059204 48.46899,82.067884 L46.0385,82.719152 L44.48812,81.823656 L46.02403,80.937209 L48.51694,81.604761 C48.6399328,81.642262 48.7735872,81.6096779 48.8655208,81.5197793 C48.9574543,81.4298806 48.9930214,81.2969889 48.9582823,81.1731876 C48.9235432,81.0493864 48.8240321,80.9543981 48.69875,80.925451 L46.88515,80.439713 L48.22929,79.663619 C48.4358802,79.5477936 48.5400006,79.3085187 48.4839462,79.0784037 C48.4278918,78.8482886 48.2253941,78.6837037 47.98868,78.675864 C47.8876761,78.6725361 47.7878405,78.6982794 47.70104,78.750034 L46.30172,79.557792 L46.77118,77.806605 C46.8019933,77.6973821 46.7782278,77.5800027 46.7073549,77.4913678 C46.6364819,77.402733 46.5272057,77.3537285 46.41388,77.35976 C46.260106,77.3681062 46.1296323,77.4754933 46.09187,77.624792 L45.4406,80.055284 L44.01414,80.87932 L44.01414,79.226728 L45.8386,77.402275 C45.9429276,77.3011249 45.974334,77.1462418 45.9176484,77.0124423 C45.8609627,76.8786427 45.7278498,76.7934601 45.58261,76.798042 C45.4913023,76.8009161 45.4046927,76.8391935 45.3411,76.904778 L44.01414,78.231734 L44.01414,76.680455 C44.0162611,76.5376376 43.9604006,76.4000598 43.8593177,76.2991462 C43.7582348,76.1982325 43.6205637,76.1426026 43.47775,76.144963 L43.47784,76.144967 Z" id="path11237" fill="#ECF0F3"></path>
            </g>
        </g>
    </g>
</svg>