<?xml version="1.0" encoding="UTF-8"?>
<svg width="93px" height="93px" viewBox="0 0 93 93" version="1.1" xmlns="http://www.w3.org/2000/svg" xmlns:xlink="http://www.w3.org/1999/xlink">
    <!-- Generator: Sketch 53.2 (72643) - https://sketchapp.com -->
    <title>g13514</title>
    <desc>Created with Sketch.</desc>
    <g id="Page-1" stroke="none" stroke-width="1" fill="none" fill-rule="evenodd">
        <g id="g14289" transform="translate(-1.000000, -0.999973)" fill-rule="nonzero">
            <g id="g13514" transform="translate(0.859990, 1.563490)">
                <path d="M46.31753,0.10635 C20.9124315,0.10635 0.31753,20.7012515 0.31753,46.10635 C0.31753,71.5114485 20.9124315,92.10635 46.31753,92.10635 C71.7226285,92.10635 92.31753,71.5114485 92.31753,46.10635 C92.31753,20.7012515 71.7226285,0.10635 46.31753,0.10635 Z" id="path13463" fill="#3598DB"></path>
                <path d="M47.07925,11.16104 L44.76284,22.30753 L39.99136,17.29776 L39.65542,27.10245 L33.13393,20.28604 L34.923,29.09659 L37.75893,32.22745 L35.85073,33.56729 L32.94643,30.4169 L21.82339,23.63956 L33.85854,36.0087 L32.61636,37.68643 L29.57534,34.7001 L20.23354,32.43448 L26.89956,39.40714 L17.45815,39.41714 L23.74526,45.90347 L11.66128,47.03823 L17.8937,53.32534 L17.53237,54.32925 L22.73745,59.6105 L20.30386,61.08902 L25.34487,66.2648 L21.20034,70.50112 L41.8937,91.88589 C43.3639106,92.0304501 44.8402316,92.1041022 46.31753,92.10659 C71.7226285,92.10659 92.31753,71.5116885 92.31753,46.10659 C92.3149491,44.9666434 92.2699948,43.8271868 92.18276,42.69058 L71.13784,21.173 L65.60073,24.14761 L61.51675,19.90738 L58.92495,21.85269 L54.54995,17.11636 L47.07925,11.16128 L47.07925,11.16104 Z" id="path13465" fill-opacity="0.21461188" fill="#000000"></path>
                <path d="M46.3407,10.83123 C45.4929183,10.8439823 44.8157035,11.5410538 44.82745,12.38885 L44.82745,25.33279 C44.8194017,25.8869904 45.1104544,26.4025717 45.5891095,26.6820213 C46.0677647,26.9614709 46.6598253,26.9614709 47.1384805,26.6820213 C47.6171356,26.4025717 47.9081883,25.8869904 47.90014,25.33279 L47.90014,12.38885 C47.9058921,11.97369 47.7433824,11.5738741 47.4496204,11.2804549 C47.1558584,10.9870358 46.755853,10.8249931 46.3407,10.83123 L46.3407,10.83123 Z M39.00311,16.76681 C38.5155915,16.7557296 38.0517572,16.9767269 37.7532373,17.3623212 C37.4547174,17.7479155 37.3569581,18.2523212 37.48981,18.72152 L39.5558,26.43181 C39.6893523,26.9714929 40.1040232,27.3969338 40.6401051,27.5442771 C41.176187,27.6916204 41.7500472,27.5378796 42.1406677,27.1422667 C42.5312881,26.7466539 42.6777291,26.1708876 42.52359,25.63672 L40.4576,17.92643 C40.2884101,17.256981 39.6934268,16.7826192 39.00311,16.76681 L39.00311,16.76681 Z M53.67742,16.76881 C53.0053274,16.8048331 52.4349112,17.274081 52.26999,17.92662 L50.20311,25.63691 C49.983552,26.4566856 50.4701244,27.299232 51.2899,27.51879 C52.1096756,27.738348 52.952222,27.2517756 53.17178,26.432 L55.23778,18.72171 C55.3509074,18.3220754 55.2974289,17.8936654 55.0895309,17.5341044 C54.881633,17.1745435 54.5370268,16.9144633 54.13424,16.81313 C53.9850433,16.7755759 53.8310524,16.7606427 53.67742,16.76883 L53.67742,16.76881 Z M60.6641,19.62173 C60.1028937,19.6170616 59.583788,19.9187461 59.31002,20.40867 L55.31827,27.32116 C55.042524,27.7966066 55.0417341,28.3831317 55.3161986,28.8593193 C55.590663,29.3355069 56.0985765,29.6288262 56.6481994,29.6285477 C57.1978222,29.6282692 57.7054382,29.3344355 57.97942,28.85797 L61.97025,21.94458 C62.1827227,21.5879438 62.2418458,21.1605089 62.134159,20.759588 C62.0264722,20.3586672 61.7611401,20.0183805 61.39857,19.8162 C61.1738868,19.6909136 60.9213428,19.624046 60.6641,19.62173 L60.6641,19.62173 Z M32.01647,19.62265 C31.4748299,19.6437696 30.984392,19.948721 30.7258576,20.4251452 C30.4673232,20.9015694 30.4789484,21.4789682 30.75645,21.9446 L34.74724,28.85709 C35.016592,29.3424692 35.5268059,29.6448248 36.0819035,29.648019 C36.637001,29.6512132 37.1506607,29.3547492 37.4255807,28.8725019 C37.7005007,28.3902546 37.693929,27.7972167 37.40839,27.32118 L33.41761,20.4087 C33.1356552,19.9039329 32.5942099,19.600178 32.01647,19.62265 L32.01647,19.62265 Z M22.64905,20.65383 C22.0235083,20.6537202 21.4603461,21.0328482 21.2250824,21.6124631 C20.9898188,22.1920779 21.1294251,22.8564573 21.57808,23.29236 L30.73112,32.44449 C31.1172424,32.8423614 31.6877664,33.0013577 32.224014,32.8605367 C32.7602617,32.7197158 33.1790551,32.3009204 33.3198736,31.7646721 C33.4606921,31.2284238 33.3016931,30.6579005 32.90382,30.27178 L23.75171,21.11966 C23.4622403,20.8217093 23.0644622,20.6536639 22.64905,20.65383 L22.64905,20.65383 Z M70.0324,20.65475 C69.6331859,20.666525 69.2542438,20.8332815 68.97588,21.11968 L59.82289,30.27271 C59.4248195,30.6587871 59.2656692,31.2294064 59.4064616,31.7657768 C59.5472541,32.3021471 59.9661416,32.7210366 60.5025113,32.8618315 C61.038881,33.0026264 61.6095011,32.8434787 61.99558,32.44541 L71.14862,23.29239 C71.4467877,23.0030284 71.615057,22.6052476 71.615057,22.189755 C71.615057,21.7742624 71.4467877,21.3764816 71.14862,21.08712 L71.14862,21.08712 C70.8505214,20.7982642 70.4482344,20.6423076 70.03333,20.65475 L70.0324,20.65475 Z M46.36335,29.86024 C42.1081208,29.8602718 38.0271971,31.5507307 35.0183801,34.5597165 C32.0095631,37.5687023 30.3193331,41.6497209 30.31954,45.90495 C30.3196118,54.7656702 37.5026298,61.9486837 46.36335,61.94875 C55.2240702,61.9486837 62.4070882,54.7656702 62.40716,45.90495 C62.4073669,41.6497209 60.7171369,37.5687023 57.7083199,34.5597165 C54.6995029,31.5507307 50.6185792,29.8602718 46.36335,29.86024 L46.36335,29.86024 Z M71.15946,30.08095 C70.8659253,30.0716534 70.5758749,30.1466751 70.32366,30.29713 L63.41029,34.28886 C62.9182653,34.5547367 62.6095627,35.0669585 62.6043104,35.6262001 C62.599058,36.1854417 62.8980856,36.7033712 63.3850298,36.9784423 C63.871974,37.2535133 64.4699223,37.2422786 64.94619,36.94911 L71.85956,32.95829 C72.2219201,32.7556453 72.4868515,32.414986 72.5940268,32.0138836 C72.7012021,31.6127812 72.6414981,31.1853787 72.42851,30.829 C72.1603893,30.3799034 71.6822259,30.0980468 71.15946,30.08095 L71.15946,30.08095 Z M21.67487,30.08187 C20.9654522,30.0556412 20.3304227,30.5188284 20.1386929,31.2023497 C19.9469632,31.8858709 20.2484546,32.6117551 20.86802,32.95831 L27.78051,36.94913 C28.2565503,37.2347317 28.84963,37.2413402 29.331916,36.9664169 C29.8142021,36.6914935 30.1106857,36.1777964 30.1074719,35.6226637 C30.1042581,35.067531 29.8018468,34.557301 29.31641,34.28798 L22.40392,30.29715 C22.1827707,30.1654588 21.9320822,30.0914334 21.67487,30.08187 L21.67487,30.08187 Z M18.72515,36.97265 C17.9572982,36.9913663 17.3212205,37.5742216 17.2356494,38.3375199 C17.1500783,39.1008181 17.6413038,39.810052 18.38595,39.99833 L26.09534,42.0643 C26.6285341,42.2156429 27.2019118,42.0680931 27.5958208,41.6781747 C27.9897298,41.2882563 28.1431101,40.7164107 27.9972041,40.1817032 C27.851298,39.6469958 27.4287226,39.2323116 26.89136,39.09651 L19.18104,37.03054 C19.0328384,36.9884954 18.8791566,36.9689771 18.72515,36.97264 L18.72515,36.97265 Z M73.95538,36.97265 C73.8171156,36.9734668 73.6795941,36.9929426 73.54654,37.03055 L65.83534,39.09652 C65.2978341,39.2321844 64.8750827,39.6468691 64.7290893,40.1816619 C64.5830959,40.7164547 64.7364998,41.2884245 65.1305149,41.6783854 C65.52453,42.0683463 66.0980557,42.2158266 66.63131,42.06431 L74.34163,39.99834 C74.744116,39.896416 75.0882221,39.6359463 75.295586,39.2762468 C75.5029499,38.9165473 75.5559187,38.4882393 75.44243,38.08886 C75.2536628,37.4250618 74.6454845,36.9685549 73.95538,36.97266 L73.95538,36.97265 Z M12.84838,44.36816 C12.2943429,44.3603664 11.7790235,44.6514775 11.4997307,45.1300309 C11.2204379,45.6085844 11.2204379,46.2004456 11.4997307,46.6789991 C11.7790235,47.1575525 12.2943429,47.4486636 12.84838,47.44087 L25.79232,47.44087 C26.3463571,47.4486636 26.8616765,47.1575525 27.1409693,46.6789991 C27.4202621,46.2004456 27.4202621,45.6085844 27.1409693,45.1300309 C26.8616765,44.6514775 26.3463571,44.3603664 25.79232,44.36816 L12.84838,44.36816 L12.84838,44.36816 Z M66.93434,44.36816 C66.3803029,44.3603664 65.8649835,44.6514775 65.5856907,45.1300309 C65.3063979,45.6085844 65.3063979,46.2004456 65.5856907,46.6789991 C65.8649835,47.1575525 66.3803029,47.4486636 66.93434,47.44087 L79.87832,47.44087 C80.293628,47.446862 80.6936703,47.2844611 80.9872813,46.9906768 C81.2808923,46.6968925 81.4430571,46.2967544 81.43682,45.88145 C81.4240911,45.0333041 80.7264731,44.3559231 79.87832,44.36816 L66.93434,44.36816 L66.93434,44.36816 Z M26.50511,49.68684 C26.366534,49.6875731 26.228694,49.7070497 26.09534,49.74474 L18.38595,51.81071 C17.8462671,51.9442623 17.4208262,52.3589332 17.2734829,52.8950151 C17.1261396,53.431097 17.2798804,54.0049572 17.6754933,54.3955777 C18.0711061,54.7861981 18.6468724,54.9326391 19.18104,54.7785 L26.89136,52.71254 C27.6438446,52.5213769 28.1354905,51.7989068 28.0371772,51.0287699 C27.938864,50.258633 27.2814864,49.6828436 26.50511,49.68685 L26.50511,49.68684 Z M66.17634,49.68684 C65.4083281,49.7051448 64.7718619,50.2878737 64.6860576,51.0512969 C64.6002533,51.81472 65.0914832,52.5241954 65.83627,52.71253 L73.54561,54.77849 C74.0788041,54.9298329 74.6521818,54.7822831 75.0460908,54.3923647 C75.4399998,54.0024463 75.5933801,53.4306007 75.4474741,52.8958932 C75.301568,52.3611858 74.8789926,51.9465016 74.34163,51.8107 L66.63131,49.74473 C66.4834041,49.7027769 66.3300393,49.6832595 66.17634,49.68683 L66.17634,49.68684 Z M28.61631,54.64372 C28.3227753,54.6344234 28.0327249,54.7094451 27.78051,54.8599 L20.86802,58.85073 C20.3825832,59.120051 20.0801719,59.630281 20.0769581,60.1854137 C20.0737443,60.7405464 20.3702279,61.2542435 20.852514,61.5291669 C21.3348,61.8040902 21.9278797,61.7974817 22.40392,61.51188 L29.31641,57.52105 C29.9192941,57.1844785 30.2236251,56.487088 30.0603853,55.8161913 C29.8971455,55.1452946 29.3064311,54.6656828 28.61631,54.64372 L28.61631,54.64372 Z M64.21802,54.64372 C63.5077743,54.6162314 62.8713789,55.0794741 62.6792739,55.7637988 C62.4871688,56.4481235 62.7895028,57.1748883 63.41029,57.52105 L70.32273,61.51188 C70.7981477,61.7871739 71.3843728,61.7876966 71.8602807,61.5132509 C72.3361885,61.2388052 72.6293605,60.7311534 72.6292118,60.1817822 C72.6290631,59.632411 72.3356164,59.124918 71.85956,58.85073 L64.94707,54.8599 C64.726005,54.7278932 64.4753112,54.6535567 64.21802,54.64372 L64.21802,54.64372 Z M60.89386,58.89867 C60.2683138,58.898556 59.7051459,59.2776856 59.4698814,59.8573049 C59.2346168,60.4369243 59.3742278,61.1013083 59.82289,61.53721 L68.97588,70.68933 C69.3620644,71.0869021 69.9324387,71.245672 70.4685002,71.1048172 C71.0045617,70.9639623 71.423215,70.5453167 71.5640797,70.0092579 C71.7049444,69.473199 71.546185,68.9028218 71.14862,68.51663 L61.99558,59.3645 C61.7063376,59.0667833 61.308946,58.898758 60.89386,58.89867 L60.89386,58.89867 Z M31.7876,58.89959 C31.3883985,58.9113779 31.0094723,59.0781373 30.73112,59.36453 L21.57808,68.51665 C21.1899645,68.9049316 21.0384767,69.4707758 21.1806807,70.0010345 C21.3228847,70.5312932 21.7371762,70.9454075 22.2674957,71.0873845 C22.7978152,71.2293616 23.3635945,71.0776317 23.75171,70.68935 L32.90382,61.53723 C33.3582323,61.09555 33.4948758,60.420201 33.2479067,59.8366104 C33.0009376,59.2530197 32.4210216,58.8809108 31.7876,58.89959 L31.7876,58.89959 Z M36.10224,62.16407 C35.5405131,62.1592473 35.0209286,62.4613541 34.74724,62.95192 L30.75645,69.86441 C30.4710236,70.3404423 30.4645202,70.9334072 30.7394375,71.4155851 C31.0143548,71.8977629 31.5279511,72.1941892 32.0829871,72.1910256 C32.6380231,72.187862 33.1482071,71.8856004 33.41761,71.40032 L37.40839,64.48783 C37.6904728,64.0150824 37.6980838,63.427548 37.4283416,62.947652 C37.1585994,62.4677561 36.6527291,62.1688416 36.10224,62.16407 L36.10224,62.16407 Z M56.57921,62.16607 C56.0374044,62.1868783 55.546676,62.491707 55.2879227,62.9681867 C55.0291693,63.4446665 55.0407022,64.0222493 55.31827,64.48802 L59.31002,71.40051 C59.5758546,71.8926167 60.0881025,72.2013968 60.647396,72.2066727 C61.2066894,72.2119486 61.7246712,71.9128867 61.9997419,71.4258825 C62.2748125,70.9388783 62.2635164,70.3408686 61.97025,69.8646 L57.97942,62.95212 C57.6976189,62.4476591 57.156621,62.1439537 56.57921,62.16607 L56.57921,62.16607 Z M51.71822,64.21757 C51.2305418,64.2061895 50.7664336,64.427059 50.4676962,64.8126954 C50.1689587,65.1983318 50.0710891,65.7029121 50.20399,66.17227 L52.26999,73.88256 C52.4035423,74.4222429 52.8182132,74.8476838 53.3542951,74.9950271 C53.890377,75.1423704 54.4642372,74.9886296 54.8548577,74.5930167 C55.2454781,74.1974039 55.3919191,73.6216376 55.23778,73.08747 L53.17178,65.37718 C53.0026791,64.7080612 52.4081852,64.2337904 51.71822,64.21757 L51.71822,64.21757 Z M41.11704,64.21849 C41.06579,64.2162323 41.014459,64.2165427 40.96324,64.21942 C40.2911436,64.2554388 39.7207223,64.7246876 39.5558,65.37723 L37.48981,73.08752 C37.3356446,73.6216967 37.4820754,74.1974855 37.8727026,74.5931143 C38.2633298,74.9887431 38.8372091,75.1424871 39.3733039,74.99513 C39.9093987,74.8477729 40.3240692,74.4223048 40.4576,73.8826 L42.52359,66.17231 C42.651465,65.7211175 42.5662856,65.2362287 42.2922919,64.8556315 C42.0182982,64.4750344 41.5854921,64.2404038 41.11704,64.21851 L41.11704,64.21849 Z M46.3407,64.9177 C45.4925619,64.9304507 44.8152018,65.6280745 44.82745,66.47622 L44.82745,79.42017 C44.8194017,79.9743704 45.1104544,80.4899517 45.5891095,80.7694013 C46.0677647,81.0488509 46.6598253,81.0488509 47.1384805,80.7694013 C47.6171356,80.4899517 47.9081883,79.9743704 47.90014,79.42017 L47.90014,66.47622 C47.9061376,66.060905 47.7437364,65.6608544 47.4499471,65.3672384 C47.1561578,65.0736224 46.7560114,64.9114573 46.3407,64.9177 L46.3407,64.9177 Z" id="path13467" fill="#F2C512"></path>
            </g>
        </g>
    </g>
</svg>