<?xml version="1.0" encoding="UTF-8"?>
<svg width="93px" height="93px" viewBox="0 0 93 93" version="1.1" xmlns="http://www.w3.org/2000/svg" xmlns:xlink="http://www.w3.org/1999/xlink">
    <!-- Generator: Sketch 53.2 (72643) - https://sketchapp.com -->
    <title>g10608</title>
    <desc>Created with Sketch.</desc>
    <g id="Page-1" stroke="none" stroke-width="1" fill="none" fill-rule="evenodd">
        <g id="g14289" transform="translate(-590.000000, -588.999973)" fill-rule="nonzero">
            <g id="g10608" transform="translate(590.091830, 589.443290)">
                <path d="M46.44699,0.03253 C21.0418915,0.03253 0.44699,20.6274315 0.44699,46.03253 C0.44699,71.4376285 21.0418915,92.03253 46.44699,92.03253 C71.8520885,92.03253 92.44699,71.4376285 92.44699,46.03253 C92.44699,20.6274315 71.8520885,0.03253 46.44699,0.03253 Z" id="path10470" fill="#3598DB"></path>
                <path d="M59.27707,26.81574 C40.35782,37.88786 31.17298,36.68192 20.73801,53.97589 L56.55832,90.84698 C72.76822,87.19285 85.74736,75.08052 90.51144,59.16144 L59.27707,26.81574 Z" id="path10472" fill-opacity="0.21461188" fill="#000000"></path>
                <path d="M27.82734,57.17559 L67.95447,57.17559 C80.20428,54.49822 76.56662,37.15234 64.62785,38.67134 C60.7672,14.27532 34.56412,21.55438 32.81722,33.05772 C11.32615,31.69572 14.74562,57.09435 27.82734,57.17559 Z" id="path10474" fill="#ECF0F3"></path>
                <g id="g10498" transform="translate(16.104880, 46.760898)">
                    <polygon id="path10500" fill="#E45136" points="29.1787877 0.538427672 9.59379373 15.8422131 18.9502829 16.0761369 0.650920431 34.0713659 28.7889764 12.7478517 17.1892548 12.7033918"></polygon>
                    <polygon id="path10502" fill="#F2C512" points="29.3952517 0.324557124 7.28905839 16.066967 18.4649755 16.3008908 0.428759968 34.2084042 26.7456744 13.3911306 15.5594297 13.3466707"></polygon>
                </g>
                <path d="M58.77539,55.86218 L56.33789,65.61609 L73.16797,83.40515 C75.5668169,81.6899708 77.7951723,79.7480905 79.82227,77.60632 L58.77539,55.86218 Z" id="path10508" fill-opacity="0.21568627" fill="#000000"></path>
                <g id="g10510" transform="translate(55.503094, 55.646019)">
                    <path d="M6.45061915,7.95813327 C6.45061915,10.1048045 5.0436492,10.7924969 3.30800032,10.7924969 C1.57239776,10.7924969 0.165381491,10.1048045 0.165381491,7.95813327 C0.165381491,5.81141575 1.86476778,4.94838464 3.30800032,0.153155024 C4.63429412,4.83139958 6.45061915,5.81141575 6.45061915,7.95813327 Z" id="path10512" fill="#75C1F4"></path>
                    <path d="M2.10767619,4.44334819 C1.19096904,5.70702766 0.453073965,9.31105668 1.77682058,9.52946584 C2.68644194,9.18369765 1.51589666,8.36660842 2.10767619,4.44334819 Z" id="path10514" fill="#DAEFFC"></path>
                </g>
                <path d="M46.20508,63.88366 L43.76758,73.63757 L59.30859,90.17077 C62.357236,89.2785049 65.3052602,88.0728548 68.10547,86.57312 L46.20508,63.88366 Z" id="path10518" fill-opacity="0.21568627" fill="#000000"></path>
                <g id="g10520" transform="translate(42.932594, 63.667989)">
                    <path d="M6.45061915,7.95813327 C6.45061915,10.1048045 5.0436492,10.7924969 3.30800032,10.7924969 C1.57239776,10.7924969 0.165381491,10.1048045 0.165381491,7.95813327 C0.165381491,5.81141575 1.86476778,4.94838464 3.30800032,0.153155024 C4.63429412,4.83139958 6.45061915,5.81141575 6.45061915,7.95813327 Z" id="path10522" fill="#75C1F4"></path>
                    <path d="M2.10767619,4.44334819 C1.19096904,5.70702766 0.453073965,9.31105668 1.77682058,9.52946584 C2.68644194,9.18369765 1.51589666,8.36660842 2.10767619,4.44334819 Z" id="path10524" fill="#DAEFFC"></path>
                </g>
            </g>
        </g>
    </g>
</svg>